<svg viewBox="0 0 350 963" preserveAspectRatio="xMidYMid meet" fill="none" xmlns="http://www.w3.org/2000/svg">
  <mask id="mask0_246_11786" style="mask-type:luminance" maskUnits="userSpaceOnUse" x="-600" y="-117" width="1325" height="1320">
    <path d="M830.816 220.037L-159.7 -116.682L-493.848 866.273L496.667 1202.99L830.816 220.037Z" fill="white"/>
  </mask>
	
  <g transform="translate(0, -90)" mask="url(#mask0_246_11786)">
    <g opacity="0.23">
<path d="M4.45547 644.819L-14.0897 699.373C-14.8129 701.5 -16.358 703.251 -18.3851 704.24C-20.4123 705.229 -22.7554 705.375 -24.899 704.646L-67.7289 690.086" stroke="white" stroke-width="2.11792" stroke-linecap="square" stroke-linejoin="round"/>
<path d="M3.10839 648.79C5.20904 649.504 7.48646 648.393 8.19511 646.308C8.90376 644.224 7.7753 641.955 5.67464 641.241C3.57398 640.527 1.29661 641.638 0.587956 643.722C-0.120696 645.807 1.00773 648.076 3.10839 648.79Z" fill="white"/>
<path d="M-131.613 728.722L-156.494 720.263C-158.636 719.541 -160.975 719.691 -162.998 720.681C-165.02 721.671 -166.562 723.419 -167.284 725.543L-167.999 727.647C-168.721 729.771 -168.564 732.096 -167.564 734.114C-166.564 736.131 -164.801 737.676 -162.663 738.408L-122.923 751.918C-120.781 752.64 -118.442 752.49 -116.42 751.5C-114.397 750.51 -112.856 748.762 -112.134 746.638L-104.722 724.836C-104 722.712 -104.157 720.386 -105.157 718.369C-106.157 716.351 -107.92 714.807 -110.058 714.074L-112.198 713.347C-114.336 712.62 -116.101 711.08 -117.103 709.065C-118.105 707.05 -118.262 704.727 -117.541 702.604L-116.999 701.012C-116.277 698.888 -114.736 697.14 -112.713 696.15C-110.691 695.16 -108.352 695.01 -106.21 695.732L-104.586 696.284C-102.442 697.013 -100.099 696.867 -98.0717 695.878C-96.0446 694.889 -94.4995 693.138 -93.7763 691.011L-86.7191 670.251C-86.3611 669.198 -85.7974 668.226 -85.0604 667.391C-84.3234 666.556 -83.4275 665.874 -82.4237 665.384C-81.42 664.894 -80.3282 664.606 -79.2105 664.537C-78.0928 664.467 -76.9713 664.617 -75.9099 664.978L25.2614 699.37" stroke="white" stroke-width="2.11792" stroke-linecap="square" stroke-linejoin="round"/>
<path d="M23.7741 703.073C24.5259 703.333 25.3374 703.365 26.1057 703.166C26.874 702.968 27.5645 702.546 28.0897 701.956C28.615 701.365 28.9514 700.632 29.0562 699.85C29.161 699.067 29.0296 698.27 28.6786 697.56C28.3275 696.849 27.7727 696.258 27.0844 695.859C26.3961 695.461 25.6053 695.274 24.8122 695.323C24.0192 695.371 23.2595 695.653 22.6295 696.131C21.9995 696.61 21.5276 697.265 21.2735 698.012C20.9344 699.01 21.007 700.102 21.4756 701.05C21.9442 701.999 22.7706 702.726 23.7741 703.073Z" fill="white"/>
<path d="M38.6137 791.938L11.5477 871.557C10.8246 873.684 10.9826 876.014 11.987 878.034C12.9915 880.053 14.7601 881.597 16.9037 882.326L19.5583 883.228C21.7002 883.95 24.0391 883.8 26.0617 882.81C28.0844 881.821 29.6257 880.072 30.3477 877.948L62.4727 783.447C63.1947 781.323 63.0384 778.997 62.0381 776.98C61.0377 774.962 59.275 773.418 57.1366 772.685L35.682 765.392C34.619 765.025 33.4945 764.869 32.3731 764.935C31.2516 765.001 30.1554 765.287 29.1473 765.775C28.1391 766.264 27.239 766.947 26.4987 767.783C25.7583 768.62 25.1923 769.595 24.8331 770.651L5.03151 828.901C4.67581 829.956 4.11356 830.93 3.37709 831.767C2.64062 832.603 1.74443 833.286 0.739999 833.776C-0.26443 834.266 -1.3573 834.554 -2.47582 834.622C-3.59434 834.69 -4.71647 834.538 -5.77774 834.175L-8.76909 833.158C-10.9127 832.429 -12.6813 830.885 -13.6857 828.866C-14.6902 826.846 -14.8482 824.517 -14.1251 822.389L5.67657 764.139C6.39857 762.015 6.24226 759.69 5.24191 757.672C4.24156 755.655 2.47883 754.11 0.340397 753.378L-57.6246 733.673C-58.686 733.312 -59.8075 733.162 -60.9252 733.232C-62.0429 733.302 -63.1347 733.589 -64.1384 734.079C-65.1422 734.569 -66.0381 735.251 -66.7751 736.086C-67.5121 736.921 -68.0758 737.893 -68.4338 738.946L-88.2354 797.196C-88.5935 798.249 -88.739 799.363 -88.6636 800.475C-88.5882 801.586 -88.2935 802.672 -87.7961 803.672C-87.2988 804.672 -86.6086 805.566 -85.765 806.302C-84.9214 807.039 -83.9409 807.604 -82.8795 807.964L-80.2447 808.86C-78.1011 809.589 -76.3325 811.133 -75.3281 813.152C-74.3236 815.172 -74.1656 817.501 -74.8888 819.629L-113.249 932.472C-113.972 934.599 -115.517 936.35 -117.544 937.339C-119.571 938.328 -121.915 938.474 -124.058 937.745L-200.447 911.777C-202.587 911.05 -204.926 911.194 -206.951 912.179C-208.976 913.164 -210.522 914.909 -211.249 917.031L-224.655 956.467C-225.379 958.595 -225.221 960.924 -224.216 962.944C-223.212 964.963 -221.443 966.507 -219.299 967.236L-143.901 992.867C-141.759 993.589 -139.421 993.439 -137.398 992.449C-135.375 991.459 -133.834 989.711 -133.112 987.587L-126.289 967.515C-125.928 966.463 -125.78 965.35 -125.854 964.24C-125.927 963.13 -126.22 962.044 -126.716 961.044C-127.211 960.044 -127.9 959.151 -128.742 958.414C-129.585 957.678 -130.564 957.114 -131.625 956.753L-188.183 937.526C-189.244 937.166 -190.364 937.017 -191.481 937.087C-192.598 937.157 -193.688 937.446 -194.691 937.936C-195.693 938.427 -196.587 939.109 -197.322 939.945C-198.056 940.781 -198.618 941.753 -198.973 942.806L-200.309 946.738C-200.67 947.79 -200.817 948.903 -200.744 950.013C-200.671 951.123 -200.378 952.209 -199.882 953.209C-199.387 954.209 -198.698 955.102 -197.855 955.839C-197.013 956.575 -196.034 957.14 -194.973 957.5L-152.123 972.066" stroke="white" stroke-width="2.11792" stroke-linecap="square" stroke-linejoin="round"/>
<path d="M37.2637 795.91C39.3644 796.624 41.6418 795.513 42.3504 793.429C43.0591 791.344 41.9306 789.075 39.83 788.361C37.7293 787.647 35.4519 788.758 34.7432 790.843C34.0346 792.927 35.163 795.196 37.2637 795.91Z" fill="white"/>
<path d="M-64.2255 789.46L-55.8317 764.769C-55.1103 762.647 -53.569 760.9 -51.5468 759.914C-49.5246 758.927 -47.1873 758.781 -45.0489 759.508L-24.981 766.33C-22.8427 767.057 -21.0784 768.597 -20.0764 770.612C-19.0745 772.626 -18.9168 774.95 -19.6382 777.072L-39.2059 834.634C-39.9291 836.761 -39.771 839.091 -38.7666 841.11C-37.7621 843.13 -35.9936 844.674 -33.8499 845.403L-12.0586 852.81C-9.91495 853.539 -8.14638 855.083 -7.14194 857.103C-6.13751 859.122 -5.97949 861.452 -6.70264 863.579L-13.9403 884.87C-14.657 886.995 -14.495 889.321 -13.4897 891.336C-12.4844 893.351 -10.7179 894.891 -8.57764 895.619L31.3203 909.182C33.4606 909.909 35.7997 909.765 37.8248 908.78C39.85 907.795 41.3957 906.05 42.1229 903.928L82.4613 785.266" stroke="white" stroke-width="2.11792" stroke-linecap="square" stroke-linejoin="round"/>
<path d="M86.1864 786.729C86.4404 785.982 86.4652 785.175 86.2575 784.412C86.0498 783.648 85.6191 782.962 85.0198 782.44C84.4206 781.919 83.6798 781.585 82.8914 781.481C82.103 781.377 81.3024 781.508 80.5912 781.858C79.8799 782.207 79.2899 782.759 78.8961 783.443C78.5022 784.127 78.3222 784.913 78.3788 785.702C78.4353 786.49 78.726 787.245 79.2139 787.871C79.7018 788.497 80.3651 788.965 81.1195 789.217C81.6181 789.387 82.1449 789.457 82.6698 789.424C83.1948 789.39 83.7074 789.254 84.1782 789.023C84.6491 788.791 85.0689 788.47 85.4135 788.076C85.7582 787.683 86.0208 787.225 86.1864 786.729Z" fill="white"/>
<path d="M64.9666 940.293L-33.7284 906.742C-35.872 906.013 -37.6406 904.469 -38.645 902.45C-39.6495 900.43 -39.8075 898.101 -39.0843 895.973L-32.2009 875.725C-31.4789 873.601 -31.6352 871.275 -32.6355 869.257C-33.6359 867.24 -35.3986 865.696 -37.537 864.963L-57.6049 858.141C-59.7433 857.414 -61.5075 855.874 -62.5095 853.859C-63.5115 851.845 -63.6691 849.521 -62.9477 847.399L-41.6357 784.706" stroke="white" stroke-width="2.11792" stroke-linecap="square" stroke-linejoin="round"/>
<path d="M66.0406 936.446C66.795 936.698 67.4582 937.167 67.9461 937.793C68.434 938.419 68.7247 939.174 68.7813 939.962C68.8379 940.75 68.6578 941.536 68.264 942.221C67.8701 942.905 67.2802 943.457 66.5689 943.806C65.8576 944.155 65.0571 944.287 64.2687 944.183C63.4803 944.079 62.7395 943.745 62.1403 943.223C61.541 942.702 61.1103 942.015 60.9026 941.252C60.6949 940.488 60.7196 939.682 60.9737 938.935C61.3128 937.937 62.0362 937.115 62.9857 936.649C63.9352 936.183 65.0335 936.11 66.0406 936.446Z" fill="white"/>
<path d="M-58.6968 895.403L-56.184 888.011C-55.823 886.958 -55.6754 885.843 -55.7494 884.731C-55.8235 883.619 -56.1178 882.531 -56.6155 881.531C-57.1132 880.53 -57.8044 879.636 -58.6495 878.9C-59.4946 878.164 -60.4769 877.601 -61.5399 877.242L-64.5313 876.225C-65.5918 875.865 -66.7124 875.715 -67.8291 875.786C-68.9457 875.856 -70.0363 876.145 -71.0386 876.635C-72.0408 877.126 -72.9349 877.808 -73.6697 878.644C-74.4045 879.48 -74.9656 880.452 -75.3207 881.505L-108.067 977.835C-108.428 978.886 -108.575 979.999 -108.502 981.11C-108.429 982.22 -108.136 983.306 -107.64 984.306C-107.145 985.305 -106.456 986.199 -105.614 986.935C-104.771 987.672 -103.792 988.236 -102.731 988.597L178.021 1084.04C179.082 1084.4 180.204 1084.55 181.323 1084.48C182.441 1084.42 183.534 1084.13 184.538 1083.64C185.543 1083.15 186.439 1082.46 187.176 1081.63C187.912 1080.79 188.474 1079.82 188.83 1078.76L272.293 833.241C273.021 831.118 274.566 829.374 276.592 828.389C278.617 827.404 280.956 827.259 283.096 827.987L379.018 860.595C381.158 861.322 382.924 862.863 383.93 864.878C384.935 866.893 385.097 869.218 384.38 871.344L324.287 1048.12" stroke="white" stroke-width="2.11792" stroke-linecap="square" stroke-linejoin="round"/>
<path d="M124.407 794.153L130.231 796.133C132.369 796.866 134.132 798.41 135.132 800.428C136.133 802.445 136.289 804.771 135.567 806.895L115.812 865.007C115.09 867.131 113.549 868.88 111.526 869.869C109.503 870.859 107.165 871.01 105.023 870.287L104.349 870.058C102.205 869.329 100.437 867.786 99.4324 865.766C98.428 863.747 98.27 861.417 98.9931 859.29L113.221 817.435" stroke="white" stroke-width="2.11792" stroke-linecap="square" stroke-linejoin="round"/>
<path d="M123.321 797.994C122.566 797.741 121.903 797.273 121.415 796.647C120.927 796.021 120.637 795.266 120.58 794.478C120.523 793.69 120.703 792.903 121.097 792.219C121.491 791.535 122.081 790.983 122.792 790.634C123.504 790.284 124.304 790.153 125.093 790.257C125.881 790.361 126.622 790.695 127.221 791.216C127.82 791.738 128.251 792.424 128.459 793.188C128.666 793.951 128.642 794.758 128.388 795.505C128.048 796.503 127.325 797.325 126.376 797.791C125.426 798.257 124.328 798.33 123.321 797.994Z" fill="white"/>
<path d="M111.871 821.405C113.972 822.119 116.249 821.008 116.958 818.923C117.666 816.839 116.538 814.57 114.437 813.856C112.337 813.142 110.059 814.253 109.351 816.337C108.642 818.422 109.77 820.691 111.871 821.405Z" fill="white"/>
<path d="M110.338 892.949L119.53 896.074C121.673 896.803 124.016 896.657 126.044 895.668C128.071 894.679 129.616 892.928 130.339 890.801L156.449 813.993C157.171 811.869 158.713 810.12 160.735 809.13C162.758 808.141 165.097 807.99 167.239 808.713L206.859 822.181C209.003 822.91 210.772 824.454 211.776 826.474C212.78 828.493 212.939 830.823 212.215 832.95L185.651 911.095C184.927 913.222 183.382 914.973 181.355 915.962C179.328 916.951 176.985 917.097 174.841 916.368L152.059 908.624C149.916 907.895 148.147 906.351 147.143 904.331C146.138 902.312 145.98 899.982 146.703 897.855L167.741 835.968" stroke="white" stroke-width="2.11792" stroke-linecap="square" stroke-linejoin="round"/>
<path d="M109.26 896.791C108.508 896.535 107.847 896.064 107.363 895.437C106.878 894.809 106.591 894.054 106.538 893.266C106.484 892.479 106.667 891.694 107.063 891.012C107.458 890.33 108.049 889.78 108.761 889.433C109.472 889.086 110.272 888.957 111.059 889.062C111.847 889.167 112.586 889.502 113.184 890.024C113.782 890.546 114.211 891.232 114.418 891.995C114.625 892.757 114.6 893.563 114.346 894.31C114.178 894.805 113.913 895.263 113.566 895.656C113.219 896.049 112.797 896.369 112.325 896.6C111.853 896.83 111.339 896.966 110.813 896.999C110.287 897.031 109.759 896.961 109.26 896.791Z" fill="white"/>
<path d="M166.401 839.942C168.502 840.656 170.779 839.545 171.488 837.461C172.197 835.376 171.068 833.107 168.968 832.393C166.867 831.679 164.59 832.79 163.881 834.875C163.172 836.959 164.301 839.228 166.401 839.942Z" fill="white"/>
<path d="M171.741 888.23L187.245 842.621" stroke="white" stroke-width="2.11792" stroke-linecap="square" stroke-linejoin="round"/>
<path d="M170.526 891.809C172.627 892.523 174.904 891.412 175.613 889.327C176.322 887.242 175.193 884.974 173.093 884.26C170.992 883.545 168.715 884.656 168.006 886.741C167.297 888.826 168.426 891.094 170.526 891.809Z" fill="white"/>
<path d="M185.905 846.573C188.006 847.287 190.283 846.176 190.992 844.091C191.701 842.006 190.572 839.738 188.472 839.023C186.371 838.309 184.094 839.42 183.385 841.505C182.676 843.59 183.805 845.859 185.905 846.573Z" fill="white"/>
<path d="M92.8273 951.077L192.83 985.072C194.973 985.801 196.742 987.344 197.746 989.364C198.751 991.383 198.909 993.713 198.186 995.84L178.431 1053.95C177.708 1056.08 176.163 1057.83 174.136 1058.82C172.108 1059.81 169.765 1059.95 167.622 1059.23L164.927 1058.31C162.784 1057.58 161.015 1056.04 160.011 1054.02C159.006 1052 158.848 1049.67 159.571 1047.54L172.744 1008.79C173.465 1006.67 173.307 1004.35 172.305 1002.33C171.303 1000.32 169.539 998.778 167.401 998.051L-58.7142 921.185C-59.7896 920.76 -60.9399 920.555 -62.0951 920.585C-63.2504 920.614 -64.3864 920.876 -65.4344 921.356C-66.4824 921.835 -67.4204 922.522 -68.1915 923.374C-68.9626 924.226 -69.5507 925.226 -69.9201 926.313C-70.2896 927.399 -70.4326 928.55 -70.3406 929.696C-70.2485 930.841 -69.9233 931.958 -69.3847 932.976C-68.8461 933.995 -68.1053 934.896 -67.2073 935.623C-66.3093 936.35 -65.2728 936.889 -64.1608 937.207L147.631 1009.2" stroke="white" stroke-width="2.11792" stroke-linecap="square" stroke-linejoin="round"/>
<path d="M91.7383 954.92C90.986 954.664 90.3259 954.193 89.8414 953.565C89.3569 952.938 89.0698 952.183 89.0164 951.395C88.963 950.608 89.1456 949.823 89.5412 949.141C89.9369 948.459 90.5278 947.909 91.2392 947.562C91.9506 947.215 92.7505 947.086 93.5379 947.191C94.3252 947.296 95.0646 947.631 95.6625 948.153C96.2604 948.675 96.69 949.361 96.8969 950.123C97.1038 950.886 97.0788 951.692 96.825 952.438C96.4847 953.44 95.7576 954.263 94.8036 954.729C93.8497 955.194 92.7471 955.263 91.7383 954.92Z" fill="white"/>
<path d="M-82.0419 975.1L128.403 1046.64C130.547 1047.37 132.89 1047.22 134.917 1046.23C136.944 1045.24 138.489 1043.49 139.212 1041.37L140.803 1036.69C141.526 1034.56 141.368 1032.23 140.364 1030.21C139.359 1028.19 137.591 1026.65 135.447 1025.92L-74.998 954.379" stroke="white" stroke-width="2.11792" stroke-linecap="square" stroke-linejoin="round"/>
<path d="M-127.123 1036.25L-119.03 1012.45C-118.308 1010.32 -116.767 1008.58 -114.745 1007.59C-112.723 1006.6 -110.385 1006.46 -108.247 1007.19L191.978 1109.24C194.122 1109.97 196.465 1109.83 198.492 1108.84C200.519 1107.85 202.064 1106.1 202.788 1103.97L209.831 1083.25C210.553 1081.13 212.094 1079.38 214.116 1078.4C216.138 1077.41 218.476 1077.26 220.614 1077.99L335.772 1117.14C337.913 1117.86 340.252 1117.71 342.275 1116.72C344.298 1115.73 345.839 1113.98 346.561 1111.86L348.526 1106.08" stroke="white" stroke-width="2.11792" stroke-linecap="square" stroke-linejoin="round"/>
<path d="M287.872 853.711L221.644 1048.53C220.922 1050.65 221.08 1052.98 222.082 1054.99C223.084 1057.01 224.848 1058.55 226.987 1059.27L284.199 1078.72C285.258 1079.09 286.379 1079.24 287.496 1079.17C288.612 1079.1 289.704 1078.82 290.707 1078.33C291.711 1077.84 292.606 1077.16 293.343 1076.33C294.08 1075.49 294.644 1074.52 295.001 1073.47L296.338 1069.54C297.061 1067.41 298.606 1065.66 300.633 1064.67C302.66 1063.68 305.004 1063.54 307.147 1064.26L310.515 1065.41C312.659 1066.14 314.427 1067.68 315.432 1069.7C316.436 1071.72 316.594 1074.05 315.871 1076.18L315.203 1078.14C314.481 1080.27 314.639 1082.59 315.641 1084.6C316.643 1086.62 318.407 1088.16 320.546 1088.89L322.527 1089.56C324.667 1090.29 327.006 1090.14 329.031 1089.16C331.056 1088.17 332.602 1086.43 333.329 1084.31L440.524 768.974C441.247 766.847 441.089 764.517 440.084 762.497C439.08 760.478 437.312 758.934 435.168 758.205L375.935 738.07C373.791 737.341 372.023 735.797 371.018 733.777C370.014 731.758 369.856 729.428 370.579 727.301L384.881 685.231C385.603 683.107 385.446 680.781 384.446 678.763C383.446 676.746 381.683 675.201 379.544 674.469L341.449 661.519" stroke="white" stroke-width="2.11792" stroke-linecap="square" stroke-linejoin="round"/>
<path d="M286.505 857.679C288.606 858.393 290.883 857.282 291.592 855.197C292.3 853.113 291.172 850.844 289.071 850.13C286.971 849.416 284.693 850.527 283.984 852.611C283.276 854.696 284.404 856.965 286.505 857.679Z" fill="white"/>
<path d="M342.939 657.812C342.187 657.553 341.375 657.52 340.607 657.719C339.839 657.918 339.148 658.339 338.623 658.93C338.098 659.52 337.761 660.253 337.657 661.036C337.552 661.818 337.683 662.615 338.034 663.326C338.385 664.036 338.94 664.628 339.628 665.026C340.317 665.424 341.107 665.611 341.901 665.563C342.694 665.514 343.453 665.233 344.083 664.754C344.713 664.275 345.185 663.621 345.439 662.873C345.778 661.876 345.706 660.783 345.237 659.835C344.769 658.887 343.942 658.159 342.939 657.812Z" fill="white"/>
<path d="M306.713 860.118L246.633 1036.85C245.91 1038.98 246.068 1041.31 247.072 1043.33C248.077 1045.35 249.845 1046.89 251.989 1047.62L254.683 1048.54C256.825 1049.26 259.164 1049.11 261.187 1048.12C263.209 1047.13 264.751 1045.38 265.473 1043.26L304.742 927.74C305.465 925.613 307.01 923.863 309.037 922.874C311.064 921.885 313.407 921.738 315.551 922.467L317.532 923.141C319.676 923.869 321.444 925.413 322.449 927.433C323.453 929.452 323.611 931.782 322.888 933.909L301.85 995.796" stroke="white" stroke-width="2.11792" stroke-linecap="square" stroke-linejoin="round"/>
<path d="M305.376 864.093C307.477 864.807 309.754 863.696 310.463 861.612C311.171 859.527 310.043 857.258 307.942 856.544C305.842 855.83 303.564 856.941 302.856 859.026C302.147 861.11 303.275 863.379 305.376 864.093Z" fill="white"/>
<path d="M306.895 1038.5L346.778 921.175C347.139 920.121 347.287 919.007 347.213 917.895C347.139 916.783 346.845 915.695 346.347 914.694C345.849 913.694 345.158 912.8 344.313 912.064C343.468 911.328 342.486 910.765 341.423 910.406L319.889 903.086C317.745 902.357 315.976 900.813 314.972 898.794C313.968 896.774 313.81 894.445 314.533 892.317L322.024 870.279C322.747 868.152 324.293 866.402 326.32 865.413C328.347 864.424 330.69 864.277 332.834 865.006L336.201 866.151C338.345 866.88 340.114 868.424 341.118 870.443C342.122 872.463 342.28 874.792 341.557 876.92L340.648 879.593C340.291 880.646 340.146 881.759 340.222 882.869C340.298 883.979 340.593 885.065 341.091 886.063C341.589 887.062 342.28 887.953 343.125 888.688C343.969 889.422 344.95 889.984 346.011 890.342L349.359 891.48C350.419 891.843 351.539 891.995 352.656 891.928C353.773 891.86 354.864 891.574 355.867 891.086C356.871 890.598 357.767 889.918 358.504 889.084C359.24 888.25 359.804 887.279 360.162 886.227L362.581 879.11" stroke="white" stroke-width="2.11792" stroke-linecap="square" stroke-linejoin="round"/>
<path d="M366.313 880.598C366.571 879.852 366.6 879.046 366.397 878.281C366.193 877.516 365.766 876.828 365.169 876.303C364.573 875.778 363.834 875.441 363.046 875.333C362.258 875.225 361.457 875.352 360.744 875.697C360.031 876.043 359.438 876.592 359.04 877.274C358.643 877.956 358.459 878.741 358.511 879.53C358.564 880.318 358.85 881.075 359.335 881.703C359.819 882.332 360.48 882.804 361.233 883.06C362.239 883.402 363.337 883.334 364.289 882.873C365.241 882.412 365.969 881.594 366.313 880.598Z" fill="white"/>
<path d="M401.341 806.314L359.165 791.976C357.025 791.249 355.258 789.709 354.253 787.694C353.248 785.679 353.086 783.353 353.802 781.228L354.471 779.262C355.193 777.138 355.036 774.812 354.036 772.795C353.036 770.777 351.273 769.233 349.135 768.5L326.234 760.715C324.095 759.982 322.333 758.438 321.332 756.42C320.332 754.403 320.176 752.077 320.898 749.953L334.264 710.635C334.619 709.582 335.18 708.609 335.915 707.774C336.649 706.938 337.544 706.255 338.546 705.765C339.548 705.274 340.639 704.986 341.755 704.915C342.872 704.845 343.993 704.994 345.053 705.355L349.015 706.702C351.159 707.431 352.927 708.974 353.932 710.994C354.936 713.013 355.094 715.343 354.371 717.47L347.601 737.385C346.878 739.512 347.036 741.842 348.041 743.861C349.045 745.881 350.814 747.425 352.957 748.154L393.331 761.878C394.392 762.236 395.373 762.798 396.217 763.533C397.061 764.267 397.752 765.159 398.25 766.157C398.749 767.156 399.044 768.241 399.12 769.351C399.196 770.461 399.051 771.575 398.693 772.627L397.444 776.303C396.72 778.431 395.175 780.181 393.148 781.17C391.121 782.159 388.778 782.305 386.634 781.577L377.938 778.62" stroke="white" stroke-width="2.11792" stroke-linecap="square" stroke-linejoin="round"/>
<path d="M379.319 774.923C378.564 774.676 377.754 774.655 376.989 774.865C376.225 775.076 375.542 775.506 375.026 776.104C374.51 776.701 374.184 777.438 374.09 778.221C373.996 779.004 374.138 779.798 374.498 780.503C374.858 781.208 375.419 781.792 376.112 782.182C376.804 782.571 377.596 782.748 378.388 782.691C379.179 782.633 379.935 782.343 380.559 781.858C381.183 781.373 381.647 780.714 381.893 779.965C382.056 779.468 382.119 778.943 382.078 778.42C382.037 777.897 381.893 777.388 381.654 776.919C381.415 776.451 381.086 776.034 380.685 775.692C380.285 775.349 379.821 775.088 379.319 774.923Z" fill="white"/>
<path d="M461.169 832.133L453.149 855.724C452.426 857.852 452.584 860.181 453.589 862.201C454.593 864.22 456.362 865.764 458.505 866.493L460.348 867.119C462.491 867.848 464.835 867.702 466.862 866.713C468.889 865.724 470.434 863.973 471.157 861.846L547.61 636.946C547.968 635.893 548.114 634.778 548.038 633.667C547.963 632.556 547.668 631.469 547.171 630.469C546.674 629.469 545.983 628.576 545.14 627.839C544.296 627.103 543.316 626.538 542.254 626.177L519.532 618.453C517.388 617.724 515.62 616.18 514.615 614.161C513.611 612.141 513.453 609.812 514.176 607.684L521.42 586.374C522.142 584.25 521.986 581.924 520.985 579.907C519.985 577.889 518.222 576.345 516.084 575.612L364.198 523.98" stroke="white" stroke-width="2.11792" stroke-linecap="square" stroke-linejoin="round"/>
<path d="M363.093 527.795C365.193 528.509 367.471 527.398 368.179 525.314C368.888 523.229 367.76 520.96 365.659 520.246C363.558 519.532 361.281 520.643 360.572 522.728C359.864 524.812 360.992 527.081 363.093 527.795Z" fill="white"/>
<path d="M340.849 86.879L313.783 166.498C313.055 168.62 311.51 170.365 309.485 171.35C307.459 172.335 305.12 172.479 302.98 171.752L300.325 170.85C298.187 170.123 296.423 168.582 295.421 166.568C294.419 164.553 294.261 162.229 294.983 160.107L327.121 65.5668C327.843 63.4429 329.384 61.6943 331.407 60.7045C333.43 59.7147 335.768 59.5644 337.91 60.2868L359.365 67.5801C361.509 68.3088 363.277 69.8527 364.282 71.8722C365.286 73.8917 365.444 76.2214 364.721 78.3486L344.919 136.599C344.197 138.722 344.354 141.048 345.354 143.066C346.354 145.083 348.117 146.628 350.255 147.36L353.267 148.384C354.33 148.754 355.456 148.912 356.58 148.848C357.703 148.784 358.802 148.5 359.812 148.012C360.822 147.523 361.724 146.841 362.466 146.003C363.208 145.165 363.776 144.189 364.135 143.131L383.937 84.881C384.651 82.7805 386.166 81.0459 388.157 80.0499C390.149 79.0538 392.458 78.8757 394.588 79.5538L452.592 99.2721C454.736 100.001 456.505 101.545 457.509 103.564C458.513 105.584 458.671 107.913 457.948 110.041L438.147 168.29C437.424 170.418 435.878 172.168 433.851 173.157C431.824 174.146 429.481 174.292 427.337 173.564L424.802 172.702C422.658 171.973 420.315 172.119 418.288 173.108C416.261 174.097 414.716 175.848 413.993 177.975L375.632 290.818C374.909 292.946 375.067 295.275 376.072 297.295C377.076 299.314 378.845 300.858 380.988 301.587L457.377 327.555C459.517 328.282 461.284 329.822 462.289 331.837C463.294 333.852 463.456 336.178 462.739 338.303L449.36 377.661C448.637 379.788 447.092 381.539 445.065 382.528C443.038 383.517 440.695 383.663 438.551 382.934L363.133 357.296C360.995 356.564 359.232 355.019 358.232 353.002C357.231 350.984 357.075 348.659 357.797 346.535L364.614 326.482C365.335 324.36 366.876 322.614 368.898 321.627C370.92 320.641 373.258 320.495 375.396 321.222L431.875 340.422C432.937 340.78 433.918 341.342 434.762 342.076C435.606 342.81 436.297 343.702 436.795 344.701C437.293 345.699 437.589 346.785 437.665 347.895C437.741 349.005 437.596 350.118 437.238 351.171L435.901 355.102C435.569 356.186 435.02 357.192 434.288 358.059C433.556 358.926 432.655 359.638 431.64 360.152C430.624 360.665 429.514 360.971 428.376 361.05C427.238 361.129 426.094 360.98 425.012 360.612L382.242 346.072" stroke="white" stroke-width="2.11792" stroke-linecap="square" stroke-linejoin="round"/>
<path d="M336.983 85.7613C337.236 85.0147 337.708 84.3608 338.336 83.8822C338.965 83.4035 339.724 83.1217 340.516 83.0722C341.308 83.0228 342.098 83.208 342.787 83.6045C343.475 84.0009 344.03 84.5908 344.383 85.2995C344.735 86.0082 344.869 86.804 344.767 87.586C344.665 88.3681 344.332 89.1015 343.809 89.6933C343.287 90.2851 342.599 90.7089 341.832 90.911C341.066 91.1132 340.255 91.0845 339.503 90.8288C339.002 90.6614 338.539 90.397 338.14 90.0509C337.742 89.7049 337.416 89.2841 337.181 88.8128C336.947 88.3415 336.809 87.8292 336.775 87.3054C336.741 86.7816 336.811 86.2568 336.983 85.7613Z" fill="white"/>
<path d="M381.158 349.829C383.259 350.543 385.536 349.432 386.245 347.347C386.954 345.262 385.825 342.994 383.725 342.28C381.624 341.565 379.346 342.676 378.638 344.761C377.929 346.846 379.058 349.115 381.158 349.829Z" fill="white"/>
<path d="M423.926 147.515L432.293 122.902C433.014 120.779 432.857 118.456 431.855 116.441C430.853 114.426 429.088 112.886 426.95 112.159L406.882 105.337C404.742 104.61 402.403 104.754 400.378 105.739C398.352 106.724 396.807 108.469 396.08 110.591L376.512 168.153C376.157 169.206 375.596 170.179 374.861 171.014C374.126 171.85 373.232 172.532 372.23 173.023C371.227 173.513 370.137 173.802 369.02 173.872C367.904 173.943 366.783 173.793 365.722 173.433L343.931 166.025C341.789 165.303 339.45 165.453 337.428 166.443C335.405 167.433 333.864 169.181 333.142 171.305L325.911 192.576C325.187 194.704 323.642 196.454 321.615 197.443C319.588 198.432 317.245 198.578 315.101 197.85L275.184 184.28C273.04 183.551 271.271 182.007 270.267 179.988C269.263 177.968 269.104 175.639 269.828 173.511L310.166 54.849" stroke="white" stroke-width="2.11792" stroke-linecap="square" stroke-linejoin="round"/>
<path d="M313.899 56.3348C314.153 55.5883 314.178 54.7826 313.971 54.0199C313.764 53.2571 313.335 52.5713 312.737 52.0494C312.139 51.5274 311.399 51.1927 310.612 51.0875C309.825 50.9823 309.025 51.1114 308.313 51.4585C307.602 51.8055 307.011 52.355 306.615 53.0373C306.22 53.7196 306.037 54.5041 306.091 55.2917C306.144 56.0792 306.431 56.8345 306.916 57.4619C307.4 58.0892 308.06 58.5606 308.813 58.8163C309.821 59.1593 310.924 59.0905 311.878 58.6251C312.832 58.1597 313.559 57.3359 313.899 56.3348Z" fill="white"/>
<path d="M229.545 188.437L328.24 221.988C329.304 222.358 330.43 222.516 331.553 222.452C332.677 222.388 333.775 222.104 334.786 221.615C335.796 221.127 336.698 220.444 337.44 219.607C338.182 218.769 338.749 217.793 339.109 216.735L345.992 196.486C346.706 194.385 348.221 192.651 350.213 191.655C352.204 190.659 354.513 190.48 356.643 191.159L376.691 197.974C377.753 198.337 378.875 198.489 379.993 198.421C381.112 198.353 382.205 198.065 383.209 197.575C384.213 197.085 385.11 196.402 385.846 195.566C386.583 194.729 387.145 193.755 387.501 192.7L408.806 130.027" stroke="white" stroke-width="2.11792" stroke-linecap="square" stroke-linejoin="round"/>
<path d="M228.458 192.256C227.703 192.004 227.039 191.534 226.551 190.907C226.063 190.28 225.773 189.524 225.717 188.735C225.662 187.946 225.843 187.159 226.239 186.475C226.635 185.79 227.226 185.239 227.939 184.891C228.652 184.544 229.454 184.415 230.243 184.521C231.032 184.628 231.773 184.965 232.37 185.489C232.968 186.014 233.397 186.703 233.601 187.468C233.806 188.233 233.777 189.041 233.518 189.787C233.175 190.78 232.451 191.596 231.504 192.058C230.556 192.52 229.462 192.591 228.458 192.256Z" fill="white"/>
<path d="M-41.7622 115.877L18.331 -60.8977C19.0541 -63.0249 20.5992 -64.7756 22.6263 -65.7645C24.6535 -66.7535 26.9966 -66.8997 29.1402 -66.171L125.062 -33.5631C127.205 -32.8344 128.974 -31.2905 129.978 -29.271C130.983 -27.2515 131.141 -24.9219 130.418 -22.7946L46.9676 222.688C46.2456 224.812 46.4019 227.138 47.4023 229.156C48.4026 231.173 50.1653 232.717 52.3037 233.45L92.2017 247.013C94.3437 247.736 96.6825 247.585 98.7052 246.596C100.728 245.606 102.269 243.857 102.991 241.733L110.583 219.401C111.306 217.273 112.851 215.523 114.878 214.534C116.906 213.545 119.249 213.399 121.392 214.127L307.173 277.282C309.317 278.011 311.086 279.555 312.09 281.574C313.094 283.594 313.253 285.923 312.529 288.051L311.514 291.039C310.79 293.166 309.245 294.917 307.218 295.906C305.191 296.895 302.848 297.041 300.704 296.312L164.013 249.845" stroke="white" stroke-width="2.11792" stroke-linecap="square" stroke-linejoin="round"/>
<path d="M165.446 246.057C164.693 245.801 163.881 245.773 163.114 245.976C162.347 246.179 161.659 246.604 161.136 247.197C160.614 247.79 160.282 248.525 160.181 249.308C160.08 250.091 160.216 250.887 160.571 251.596C160.926 252.305 161.483 252.894 162.174 253.288C162.864 253.683 163.656 253.866 164.449 253.813C165.242 253.76 166 253.475 166.627 252.993C167.255 252.511 167.723 251.854 167.973 251.105C168.144 250.611 168.214 250.087 168.18 249.564C168.145 249.041 168.006 248.53 167.771 248.06C167.536 247.59 167.209 247.171 166.81 246.828C166.411 246.484 165.947 246.222 165.446 246.057Z" fill="white"/>
<path d="M398.049 283.285L400.669 275.579C401.021 274.516 401.582 273.535 402.32 272.691C403.057 271.847 403.956 271.157 404.965 270.662C405.974 270.167 407.072 269.876 408.197 269.805C409.322 269.735 410.45 269.888 411.518 270.253L563.641 321.966C564.705 322.331 565.687 322.901 566.53 323.642C567.374 324.384 568.063 325.284 568.557 326.289C569.051 327.295 569.34 328.386 569.409 329.501C569.478 330.617 569.324 331.733 568.957 332.787L548.775 392.158C548.414 393.209 548.266 394.322 548.34 395.432C548.413 396.543 548.706 397.629 549.201 398.629C549.697 399.628 550.386 400.522 551.228 401.258C552.071 401.994 553.05 402.559 554.111 402.919L612.67 422.826C613.731 423.19 614.853 423.342 615.972 423.274C617.091 423.205 618.183 422.918 619.188 422.428C620.192 421.938 621.088 421.255 621.825 420.418C622.561 419.582 623.124 418.608 623.479 417.553L624.148 415.587C624.505 414.535 624.65 413.422 624.574 412.311C624.498 411.201 624.203 410.116 623.705 409.117C623.207 408.119 622.516 407.227 621.671 406.493C620.827 405.758 619.846 405.196 618.785 404.838L574.608 389.821" stroke="white" stroke-width="2.11792" stroke-linecap="square" stroke-linejoin="round"/>
<path d="M401.92 284.38C401.67 285.129 401.202 285.786 400.574 286.268C399.947 286.75 399.189 287.036 398.396 287.088C397.603 287.141 396.812 286.958 396.121 286.563C395.431 286.169 394.873 285.58 394.518 284.871C394.163 284.163 394.028 283.366 394.128 282.583C394.229 281.8 394.562 281.065 395.084 280.472C395.606 279.879 396.294 279.454 397.061 279.251C397.829 279.048 398.64 279.077 399.393 279.333C400.399 279.674 401.229 280.397 401.703 281.343C402.176 282.289 402.254 283.381 401.92 284.38Z" fill="white"/>
<path d="M418.837 293.597L483.22 315.484C485.364 316.212 487.133 317.756 488.137 319.776C489.142 321.795 489.3 324.125 488.576 326.252L436.342 479.908C435.619 482.035 434.074 483.786 432.047 484.775C430.02 485.763 427.677 485.91 425.533 485.181L362.675 463.813" stroke="white" stroke-width="2.11792" stroke-linecap="square" stroke-linejoin="round"/>
<path d="M364.132 460.097C363.379 459.841 362.569 459.813 361.802 460.015C361.036 460.217 360.348 460.641 359.826 461.232C359.303 461.824 358.97 462.558 358.868 463.34C358.766 464.122 358.899 464.918 359.252 465.626C359.604 466.335 360.16 466.925 360.848 467.321C361.536 467.718 362.327 467.903 363.119 467.854C363.911 467.804 364.669 467.522 365.298 467.044C365.927 466.565 366.398 465.911 366.652 465.164C366.992 464.163 366.918 463.067 366.445 462.117C365.973 461.166 365.141 460.44 364.132 460.097Z" fill="white"/>
<path d="M307.685 5.68685L265.074 131.033C264.352 133.157 262.811 134.906 260.788 135.896C258.766 136.885 256.427 137.036 254.285 136.313L250.323 134.966C249.262 134.603 248.14 134.451 247.021 134.519C245.902 134.588 244.81 134.875 243.805 135.365C242.801 135.855 241.905 136.538 241.168 137.374C240.432 138.211 239.869 139.185 239.514 140.24L238.845 142.206C238.118 144.328 236.572 146.072 234.547 147.057C232.522 148.042 230.183 148.187 228.043 147.459L132.379 114.939C130.24 114.212 128.476 112.672 127.474 110.657C126.472 108.643 126.315 106.319 127.036 104.197L166.084 -10.6713C166.806 -12.7952 168.348 -14.5438 170.371 -15.5336C172.393 -16.5235 174.732 -16.6737 176.874 -15.9513L254.293 10.3666C255.356 10.7395 256.481 10.9 257.605 10.8388C258.728 10.7776 259.827 10.496 260.839 10.0101C261.85 9.52429 262.754 8.84383 263.498 8.00796C264.243 7.1721 264.812 6.19735 265.174 5.1399L272.218 -15.5808C272.935 -17.7064 272.773 -20.0318 271.768 -22.0468C270.762 -24.0619 268.996 -25.6021 266.856 -26.3297L190.031 -52.4455C187.893 -53.1725 185.556 -53.0266 183.533 -52.0401C181.511 -51.0536 179.97 -49.3072 179.249 -47.1852L178.34 -44.5115C177.979 -43.46 177.831 -42.3472 177.905 -41.2369C177.978 -40.1265 178.271 -39.0404 178.767 -38.0407C179.262 -37.041 179.951 -36.1474 180.793 -35.4111C181.636 -34.6748 182.615 -34.1102 183.676 -33.7497L208.34 -25.3655" stroke="white" stroke-width="2.11792" stroke-linecap="square" stroke-linejoin="round"/>
<path d="M303.836 4.60208C304.002 4.10644 304.264 3.64866 304.609 3.25507C304.954 2.86148 305.373 2.53983 305.844 2.3086C306.315 2.07737 306.828 1.94113 307.353 1.90769C307.878 1.87426 308.404 1.94431 308.903 2.1138C309.912 2.45672 310.744 3.18327 311.217 4.13362C311.689 5.08397 311.764 6.18027 311.423 7.18134C311.083 8.18242 310.356 9.00625 309.402 9.47163C308.448 9.93701 307.345 10.0058 306.337 9.66289C305.838 9.49341 305.378 9.22783 304.982 8.8814C304.586 8.53498 304.263 8.11454 304.03 7.64425C303.798 7.17396 303.661 6.66309 303.628 6.14101C303.594 5.61893 303.665 5.09594 303.836 4.60208Z" fill="white"/>
<path d="M271.47 36.3428L265.646 34.3629C263.509 33.6364 261.174 33.7793 259.151 34.7601C257.128 35.7409 255.582 37.4799 254.85 39.5968L235.082 97.7484C234.359 99.8757 234.517 102.205 235.521 104.225C236.526 106.244 238.294 107.788 240.438 108.517L241.111 108.746C243.255 109.475 245.598 109.328 247.625 108.34C249.653 107.351 251.198 105.6 251.921 103.473L266.149 61.6184" stroke="white" stroke-width="2.11792" stroke-linecap="square" stroke-linejoin="round"/>
<path d="M272.585 32.4648C273.339 32.7169 274.002 33.1856 274.49 33.8115C274.978 34.4374 275.269 35.1923 275.325 35.9806C275.382 36.7688 275.202 37.5549 274.808 38.2393C274.414 38.9236 273.824 39.4754 273.113 39.8247C272.402 40.174 271.601 40.3051 270.813 40.2013C270.024 40.0976 269.283 39.7636 268.684 39.2419C268.085 38.7201 267.654 38.034 267.446 37.2705C267.239 36.507 267.264 35.7004 267.518 34.9531C267.857 33.9554 268.58 33.1336 269.53 32.6673C270.479 32.201 271.577 32.1282 272.585 32.4648Z" fill="white"/>
<path d="M269.902 63.1115C270.16 62.3655 270.189 61.5591 269.986 60.7945C269.782 60.03 269.355 59.3416 268.758 58.8168C268.162 58.2919 267.423 57.9542 266.635 57.8464C265.847 57.7385 265.046 57.8654 264.333 58.211C263.619 58.5566 263.027 59.1053 262.629 59.7876C262.232 60.4699 262.048 61.255 262.1 62.0435C262.152 62.832 262.439 63.5884 262.924 64.2168C263.408 64.8452 264.069 65.3174 264.822 65.5734C265.828 65.9152 266.926 65.8481 267.878 65.3867C268.83 64.9254 269.558 64.1074 269.902 63.1115Z" fill="white"/>
<path d="M222.4 123.243L213.228 120.125C211.084 119.396 209.316 117.852 208.311 115.832C207.307 113.813 207.149 111.483 207.872 109.356L233.996 32.5086C234.351 31.4537 234.493 30.3383 234.414 29.2266C234.334 28.1148 234.035 27.0286 233.532 26.0304C233.029 25.0321 232.334 24.1415 231.485 23.4097C230.636 22.6778 229.651 22.1192 228.587 21.7659L188.966 8.2972C187.906 7.92836 186.785 7.77089 185.666 7.83385C184.547 7.8968 183.453 8.17893 182.446 8.66404C181.439 9.14914 180.54 9.82766 179.799 10.6606C179.058 11.4936 178.491 12.4645 178.13 13.5177L151.552 91.7019C151.193 92.7585 151.048 93.8763 151.125 94.9909C151.202 96.1056 151.499 97.1951 152.001 98.197C152.502 99.1989 153.197 100.093 154.046 100.829C154.895 101.565 155.881 102.127 156.948 102.484L179.829 110.262C180.89 110.623 182.012 110.773 183.129 110.703C184.247 110.633 185.339 110.345 186.343 109.856C187.346 109.366 188.242 108.684 188.979 107.849C189.716 107.014 190.28 106.042 190.638 104.989L211.676 43.102" stroke="white" stroke-width="2.11792" stroke-linecap="square" stroke-linejoin="round"/>
<path d="M223.505 119.403C224.257 119.659 224.917 120.131 225.402 120.758C225.886 121.385 226.173 122.141 226.227 122.928C226.28 123.716 226.097 124.5 225.702 125.182C225.306 125.865 224.715 126.414 224.004 126.761C223.293 127.108 222.493 127.237 221.705 127.132C220.918 127.027 220.179 126.692 219.581 126.17C218.983 125.648 218.553 124.963 218.346 124.2C218.139 123.437 218.164 122.631 218.418 121.885C218.584 121.388 218.848 120.928 219.194 120.534C219.541 120.14 219.963 119.818 220.436 119.587C220.909 119.356 221.423 119.221 221.95 119.19C222.477 119.158 223.005 119.231 223.505 119.403Z" fill="white"/>
<path d="M215.359 44.5704C215.618 43.8236 215.646 43.0162 215.442 42.251C215.238 41.4857 214.809 40.797 214.211 40.2723C213.613 39.7476 212.873 39.4107 212.084 39.3043C211.295 39.1979 210.493 39.3267 209.78 39.6746C209.067 40.0224 208.475 40.5735 208.08 41.2578C207.684 41.9421 207.502 42.7289 207.558 43.5181C207.614 44.3073 207.904 45.0634 208.392 45.6903C208.88 46.3172 209.544 46.7867 210.299 47.0391C211.303 47.3802 212.4 47.3118 213.348 46.8488C214.297 46.3859 215.021 45.5663 215.359 44.5704Z" fill="white"/>
<path d="M176.599 82.0767L192.104 36.4677" stroke="white" stroke-width="2.11792" stroke-linecap="square" stroke-linejoin="round"/>
<path d="M180.47 83.1722C180.216 83.9187 179.745 84.5727 179.116 85.0513C178.487 85.5299 177.728 85.8118 176.936 85.8612C176.144 85.9106 175.354 85.7254 174.665 85.329C173.977 84.9325 173.422 84.3426 173.069 83.6339C172.717 82.9252 172.583 82.1295 172.685 81.3474C172.787 80.5653 173.121 79.832 173.643 79.2402C174.165 78.6483 174.853 78.2245 175.62 78.0224C176.386 77.8203 177.197 77.8489 177.949 78.1046C178.958 78.4476 179.79 79.1741 180.263 80.1245C180.735 81.0748 180.81 82.1711 180.47 83.1722Z" fill="white"/>
<path d="M195.848 37.9377C196.106 37.1917 196.135 36.3853 195.931 35.6207C195.727 34.8561 195.3 34.1678 194.704 33.643C194.107 33.1181 193.368 32.7804 192.58 32.6725C191.792 32.5647 190.991 32.6916 190.278 33.0372C189.565 33.3828 188.972 33.9315 188.574 34.6137C188.177 35.296 187.993 36.0812 188.045 36.8697C188.098 37.6582 188.384 38.4146 188.869 39.043C189.354 39.6714 190.014 40.1435 190.768 40.3996C191.773 40.7413 192.872 40.6742 193.824 40.2129C194.775 39.7516 195.503 38.9336 195.848 37.9377Z" fill="white"/>
<path d="M200.885 180.007L100.823 145.991C98.6792 145.263 96.3361 145.409 94.3089 146.398C92.2818 147.387 90.7367 149.137 90.0136 151.265L70.2788 209.318C69.5556 211.445 69.7136 213.775 70.7181 215.794C71.7225 217.814 73.4911 219.358 75.6347 220.086L78.3289 221.002C80.4726 221.731 82.8157 221.585 84.8428 220.596C86.8699 219.607 88.415 217.856 89.1382 215.729L102.29 177.04C103.012 174.916 104.554 173.167 106.576 172.178C108.599 171.188 110.938 171.038 113.08 171.76L339.313 248.666C341.457 249.395 343.226 250.939 344.23 252.959C345.235 254.978 345.393 257.308 344.669 259.435C343.946 261.562 342.401 263.313 340.374 264.302C338.347 265.291 336.004 265.437 333.86 264.708L122.009 192.691" stroke="white" stroke-width="2.11792" stroke-linecap="square" stroke-linejoin="round"/>
<path d="M201.967 176.165C202.719 176.421 203.379 176.892 203.864 177.519C204.348 178.147 204.635 178.902 204.689 179.689C204.742 180.477 204.559 181.262 204.164 181.944C203.768 182.626 203.177 183.176 202.466 183.523C201.754 183.87 200.954 183.999 200.167 183.894C199.38 183.788 198.64 183.454 198.043 182.932C197.445 182.41 197.015 181.724 196.808 180.961C196.601 180.199 196.626 179.393 196.88 178.646C197.22 177.645 197.947 176.821 198.901 176.356C199.855 175.891 200.958 175.822 201.967 176.165Z" fill="white"/>
<path d="M123.48 188.981C122.728 188.721 121.916 188.688 121.148 188.887C120.38 189.086 119.689 189.507 119.164 190.098C118.639 190.688 118.302 191.421 118.198 192.204C118.093 192.986 118.224 193.783 118.575 194.494C118.926 195.204 119.481 195.796 120.169 196.194C120.858 196.593 121.648 196.779 122.442 196.731C123.235 196.682 123.994 196.401 124.624 195.922C125.254 195.443 125.726 194.789 125.98 194.042C126.319 193.044 126.247 191.951 125.778 191.003C125.31 190.055 124.483 189.328 123.48 188.981Z" fill="white"/>
<path d="M-159.516 218.181L-144.613 174.341C-143.891 172.217 -142.35 170.468 -140.327 169.478C-138.305 168.489 -135.966 168.338 -133.824 169.061L-1.21366 214.141C0.929979 214.869 2.69855 216.413 3.70298 218.433C4.70742 220.452 4.86545 222.782 4.1423 224.909L3.23342 227.583C2.50618 229.705 0.960481 231.45 -1.06464 232.435C-3.08975 233.419 -5.42894 233.564 -7.56916 232.836L-121.994 193.939C-124.137 193.21 -126.48 193.356 -128.507 194.345C-130.535 195.334 -132.08 197.085 -132.803 199.212L-158.953 276.138C-159.626 278.252 -159.436 280.548 -158.424 282.532C-157.413 284.516 -155.66 286.03 -153.544 286.749L-95.4996 306.481C-93.3559 307.21 -91.5874 308.754 -90.5829 310.773C-89.5785 312.793 -89.4205 315.122 -90.1436 317.249L-97.6352 339.287C-97.9933 340.341 -98.1388 341.455 -98.0634 342.566C-97.988 343.677 -97.6933 344.764 -97.1959 345.764C-96.6986 346.764 -96.0084 347.657 -95.1648 348.394C-94.3212 349.13 -93.3407 349.695 -92.2793 350.056L21.2338 388.644" stroke="white" stroke-width="2.11792" stroke-linecap="square" stroke-linejoin="round"/>
<path d="M19.752 392.416C20.5051 392.672 21.3167 392.7 22.0839 392.498C22.8511 392.295 23.5394 391.87 24.0616 391.277C24.5837 390.683 24.9162 389.949 25.0169 389.166C25.1176 388.382 24.982 387.586 24.6273 386.877C24.2725 386.169 23.7146 385.58 23.0243 385.185C22.3339 384.791 21.5421 384.608 20.7493 384.66C19.9565 384.713 19.1984 384.998 18.5709 385.48C17.9435 385.962 17.475 386.62 17.2249 387.368C17.0567 387.863 16.9887 388.386 17.0248 388.908C17.0608 389.43 17.2003 389.94 17.4352 390.409C17.67 390.878 17.9956 391.297 18.3932 391.642C18.7908 391.986 19.2526 392.249 19.752 392.416Z" fill="white"/>
<path d="M-0.707031 115.471L-10.3104 143.721" stroke="white" stroke-width="2.11792" stroke-linecap="square" stroke-linejoin="round"/>
<path d="M-4.58371 114.374C-4.33357 113.625 -3.86509 112.968 -3.23765 112.486C-2.61021 112.004 -1.85206 111.719 -1.05926 111.666C-0.266462 111.614 0.525296 111.796 1.21567 112.191C1.90604 112.586 2.46395 113.174 2.81869 113.883C3.17344 114.592 3.30905 115.388 3.20834 116.171C3.10763 116.954 2.77513 117.689 2.25299 118.282C1.73084 118.875 1.04257 119.3 0.275359 119.503C-0.491849 119.706 -1.30344 119.678 -2.05656 119.422C-3.06191 119.08 -3.89212 118.357 -4.36567 117.411C-4.83923 116.465 -4.91762 115.373 -4.58371 114.374Z" fill="white"/>
<path d="M-22.1174 118.826L17.7665 1.50101C18.4879 -0.621049 20.0292 -2.36742 22.0514 -3.35393C24.0735 -4.34044 26.4109 -4.48627 28.5493 -3.75935L50.1029 3.56765C52.2449 4.29 54.5837 4.13978 56.6064 3.14996C58.629 2.16013 60.1704 0.411512 60.8924 -1.71237L68.3973 -23.7895C68.7577 -24.841 68.9055 -25.9538 68.8322 -27.0642C68.759 -28.1746 68.4661 -29.2607 67.9704 -30.2604C67.4748 -31.2601 66.786 -32.1536 65.9436 -32.8899C65.1012 -33.6262 64.1217 -34.1908 63.0612 -34.5513L59.6934 -35.6962C57.5498 -36.4249 55.2067 -36.2787 53.1795 -35.2898C51.1524 -34.3008 49.6073 -32.5502 48.8842 -30.4229L47.9619 -27.7099C47.6042 -26.6575 47.0407 -25.6866 46.3039 -24.8527C45.567 -24.0188 44.6712 -23.3384 43.6677 -22.8504C42.6643 -22.3624 41.5729 -22.0764 40.4561 -22.0087C39.3393 -21.9411 38.219 -22.0932 37.1594 -22.4563L33.7916 -23.6011C31.6532 -24.3281 29.889 -25.8682 28.887 -27.8828C27.885 -29.8973 27.7274 -32.2212 28.4488 -34.3433L30.868 -41.4599" stroke="white" stroke-width="2.11792" stroke-linecap="square" stroke-linejoin="round"/>
<path d="M-50.0055 -46.4946L-52.4247 -39.378C-52.7828 -38.3246 -53.3464 -37.3527 -54.0834 -36.5176C-54.8204 -35.6826 -55.7163 -35.0008 -56.7201 -34.5111C-57.7238 -34.0214 -58.8157 -33.7335 -59.9333 -33.6637C-61.051 -33.594 -62.1725 -33.7439 -63.234 -34.1047L-65.215 -34.7781C-67.3534 -35.505 -69.6907 -35.3592 -71.7129 -34.3727C-73.7351 -33.3862 -75.2764 -31.6398 -75.9978 -29.5177L-76.4522 -28.1809C-76.8126 -27.1294 -76.9603 -26.0166 -76.8871 -24.9062C-76.8138 -23.7959 -76.521 -22.7097 -76.0253 -21.7101C-75.5296 -20.7104 -74.8409 -19.8168 -73.9984 -19.0805C-73.156 -18.3442 -72.1765 -17.7796 -71.116 -17.4191L-50.2756 -10.3346C-49.2151 -9.97407 -48.0945 -9.82471 -46.9778 -9.89506C-45.8612 -9.96541 -44.7705 -10.2541 -43.7683 -10.7445C-42.7661 -11.235 -41.8719 -11.9176 -41.1371 -12.7533C-40.4023 -13.589 -39.8413 -14.5613 -39.4861 -15.6146L49.3304 -276.884C50.0513 -279.004 51.5889 -280.751 53.6071 -281.742C55.6253 -282.732 57.9598 -282.887 60.1001 -282.171L82.3669 -274.601C83.4273 -274.241 84.548 -274.091 85.6646 -274.162C86.7813 -274.232 87.8719 -274.521 88.8742 -275.011C89.8764 -275.502 90.7705 -276.184 91.5053 -277.02C92.2401 -277.856 92.8012 -278.828 93.1563 -279.881L113.138 -338.662C113.862 -340.789 115.407 -342.54 117.434 -343.529C119.461 -344.518 121.804 -344.664 123.948 -343.935L229.378 -308.095" stroke="white" stroke-width="2.11792" stroke-linecap="square" stroke-linejoin="round"/>
<path d="M349.587 430.785L363.815 388.931C364.539 386.804 366.084 385.053 368.111 384.064C370.138 383.075 372.481 382.929 374.625 383.658L413.671 396.931C415.814 397.66 417.583 399.204 418.587 401.223C419.592 403.243 419.75 405.572 419.027 407.7L411.99 428.401C411.266 430.528 409.721 432.279 407.694 433.268C405.667 434.257 403.324 434.403 401.18 433.674L378.973 426.125C377.91 425.766 376.928 425.203 376.083 424.467C375.237 423.731 374.546 422.837 374.048 421.836C373.551 420.836 373.256 419.748 373.182 418.636C373.108 417.524 373.256 416.409 373.617 415.356L374.065 414.039C374.42 412.984 374.983 412.01 375.719 411.174C376.456 410.337 377.352 409.655 378.356 409.164C379.361 408.674 380.454 408.387 381.572 408.319C382.691 408.25 383.813 408.402 384.874 408.766L392.699 411.426" stroke="white" stroke-width="2.11792" stroke-linecap="square" stroke-linejoin="round"/>
<path d="M353.465 431.885C353.211 432.631 352.74 433.285 352.111 433.764C351.482 434.242 350.723 434.524 349.931 434.574C349.139 434.623 348.349 434.438 347.661 434.042C346.972 433.645 346.417 433.055 346.064 432.346C345.712 431.638 345.578 430.842 345.68 430.06C345.782 429.278 346.116 428.545 346.638 427.953C347.16 427.361 347.848 426.937 348.615 426.735C349.381 426.533 350.192 426.561 350.944 426.817C351.953 427.16 352.785 427.887 353.258 428.837C353.731 429.787 353.805 430.884 353.465 431.885Z" fill="white"/>
<path d="M391.248 415.123C392.001 415.379 392.813 415.407 393.58 415.204C394.347 415.002 395.036 414.577 395.558 413.983C396.08 413.39 396.412 412.655 396.513 411.872C396.614 411.089 396.478 410.293 396.123 409.584C395.769 408.876 395.211 408.287 394.52 407.892C393.83 407.497 393.038 407.315 392.245 407.367C391.453 407.42 390.694 407.705 390.067 408.187C389.44 408.669 388.971 409.326 388.721 410.075C388.553 410.57 388.485 411.093 388.521 411.615C388.557 412.137 388.696 412.647 388.931 413.116C389.166 413.585 389.492 414.004 389.889 414.348C390.287 414.693 390.749 414.956 391.248 415.123Z" fill="white"/>
<path d="M83.4439 356.672L104.161 295.729" stroke="white" stroke-width="2.11792" stroke-linecap="square" stroke-linejoin="round"/>
<path d="M87.2908 357.763C87.0367 358.51 86.5648 359.165 85.9349 359.644C85.3049 360.122 84.5452 360.404 83.7521 360.452C82.959 360.501 82.1682 360.314 81.4799 359.916C80.7916 359.517 80.2368 358.926 79.8858 358.215C79.5347 357.505 79.4033 356.708 79.5081 355.925C79.613 355.143 79.9493 354.41 80.4746 353.819C80.9999 353.229 81.6904 352.807 82.4587 352.608C83.227 352.41 84.0384 352.442 84.7902 352.702C85.2887 352.872 85.7492 353.137 86.145 353.484C86.5408 353.83 86.8641 354.25 87.0965 354.721C87.3289 355.191 87.4657 355.702 87.499 356.224C87.5324 356.746 87.4616 357.269 87.2908 357.763Z" fill="white"/>
<path d="M107.881 297.191C108.135 296.443 108.16 295.637 107.952 294.873C107.744 294.11 107.313 293.424 106.714 292.902C106.115 292.38 105.374 292.046 104.586 291.943C103.797 291.839 102.997 291.97 102.285 292.319C101.574 292.668 100.984 293.22 100.59 293.905C100.197 294.589 100.017 295.375 100.073 296.163C100.13 296.952 100.42 297.706 100.908 298.332C101.396 298.958 102.059 299.427 102.814 299.679C103.312 299.849 103.839 299.919 104.364 299.885C104.889 299.852 105.402 299.716 105.873 299.484C106.343 299.253 106.763 298.931 107.108 298.538C107.452 298.144 107.715 297.686 107.881 297.191Z" fill="white"/>
<path d="M333.264 412.561L348.468 367.836" stroke="white" stroke-width="2.11792" stroke-linecap="square" stroke-linejoin="round"/>
<path d="M337.137 413.66C336.887 414.409 336.419 415.066 335.791 415.548C335.164 416.03 334.406 416.315 333.613 416.368C332.82 416.42 332.028 416.238 331.338 415.843C330.648 415.448 330.09 414.859 329.735 414.151C329.38 413.442 329.245 412.646 329.345 411.863C329.446 411.079 329.778 410.345 330.301 409.752C330.823 409.158 331.511 408.733 332.278 408.531C333.045 408.328 333.857 408.356 334.61 408.612C335.616 408.954 336.446 409.677 336.919 410.623C337.393 411.568 337.471 412.661 337.137 413.66Z" fill="white"/>
<path d="M352.213 369.308C352.466 368.561 352.491 367.756 352.285 366.993C352.078 366.23 351.648 365.544 351.05 365.022C350.452 364.5 349.713 364.166 348.926 364.061C348.138 363.955 347.338 364.084 346.627 364.431C345.915 364.779 345.325 365.328 344.929 366.01C344.533 366.693 344.351 367.477 344.404 368.265C344.457 369.052 344.745 369.807 345.229 370.435C345.714 371.062 346.374 371.534 347.126 371.789C348.135 372.132 349.237 372.063 350.191 371.598C351.145 371.133 351.872 370.309 352.213 369.308Z" fill="white"/>
<path d="M380.465 572.697L450.237 596.415C452.38 597.144 454.149 598.688 455.153 600.707C456.158 602.727 456.316 605.056 455.593 607.184L436.52 663.291C435.798 665.414 435.954 667.74 436.954 669.758C437.955 671.775 439.717 673.32 441.856 674.052L461.983 680.894C464.121 681.621 465.886 683.162 466.888 685.176C467.89 687.191 468.047 689.515 467.326 691.637L465.054 698.321C464.332 700.445 462.79 702.193 460.768 703.183C458.745 704.173 456.406 704.323 454.264 703.601L446.34 700.907" stroke="white" stroke-width="2.11792" stroke-linecap="square" stroke-linejoin="round"/>
<path d="M379.39 576.54C381.49 577.254 383.768 576.143 384.476 574.059C385.185 571.974 384.057 569.705 381.956 568.991C379.855 568.277 377.578 569.388 376.869 571.473C376.161 573.557 377.289 575.826 379.39 576.54Z" fill="white"/>
</g>
<g style="mix-blend-mode:color-dodge">
<path d="M-223.997 842.824L-124.272 876.725C-122.129 877.454 -119.786 877.307 -117.758 876.319C-115.731 875.33 -114.186 873.579 -113.463 871.452L-99.7095 830.993C-98.9863 828.866 -99.1444 826.536 -100.149 824.517C-101.153 822.497 -102.922 820.953 -105.065 820.225L-107.542 819.383C-109.68 818.656 -111.444 817.116 -112.446 815.101C-113.448 813.087 -113.606 810.763 -112.885 808.641L-80.8064 714.277C-80.0844 712.153 -78.543 710.405 -76.5203 709.415C-74.4977 708.425 -72.1589 708.275 -70.0169 708.997L5.4604 734.655C7.60404 735.384 9.94715 735.238 11.9743 734.249C14.0014 733.26 15.5465 731.509 16.2696 729.382L21.7296 713.32" stroke="#60F7F7" stroke-opacity="0.95" stroke-width="2.11792" stroke-linecap="square" stroke-linejoin="round"/>
<path d="M25.4383 714.781C25.6923 714.033 25.7171 713.227 25.5094 712.463C25.3018 711.7 24.871 711.014 24.2717 710.492C23.6725 709.97 22.9317 709.636 22.1433 709.532C21.3549 709.429 20.5544 709.56 19.8431 709.909C19.1318 710.258 18.5419 710.81 18.148 711.494C17.7542 712.179 17.5741 712.965 17.6307 713.753C17.6873 714.541 17.978 715.296 18.4659 715.922C18.9538 716.548 19.617 717.017 20.3714 717.269C21.3785 717.605 22.4768 717.533 23.4263 717.066C24.3758 716.6 25.0992 715.778 25.4383 714.781Z" fill="#60F7F7" fill-opacity="0.95"/>
<path d="M114.39 747.781L71.7796 873.128C71.0576 875.252 71.2139 877.577 72.2143 879.595C73.2146 881.612 74.9773 883.157 77.1158 883.89L81.0778 885.237C83.2215 885.965 84.99 887.509 85.9945 889.529C86.9989 891.548 87.1569 893.878 86.4338 896.005L85.7655 897.971C85.4077 899.023 85.2627 900.137 85.3387 901.247C85.4147 902.357 85.7102 903.442 86.2084 904.441C86.7065 905.439 87.3974 906.331 88.2417 907.066C89.0859 907.8 90.0668 908.362 91.1282 908.72L186.713 941.213C188.851 941.94 191.189 941.794 193.211 940.808C195.233 939.821 196.774 938.075 197.496 935.953L236.544 821.085C237.266 818.963 237.108 816.639 236.106 814.624C235.104 812.61 233.34 811.07 231.201 810.343L153.862 784.052C151.718 783.323 149.95 781.779 148.945 779.76C147.941 777.74 147.783 775.41 148.506 773.283L155.543 752.582C156.266 750.455 157.811 748.704 159.838 747.715C161.866 746.726 164.209 746.58 166.352 747.309L243.098 773.398C244.158 773.758 245.138 774.323 245.98 775.059C246.822 775.795 247.511 776.689 248.007 777.689C248.502 778.688 248.795 779.774 248.869 780.885C248.942 781.995 248.794 783.108 248.434 784.16L247.531 786.814C247.176 787.867 246.615 788.839 245.88 789.675C245.146 790.51 244.252 791.193 243.249 791.684C242.247 792.174 241.156 792.463 240.04 792.533C238.923 792.603 237.803 792.454 236.742 792.094L212.078 783.709" stroke="#60F7F7" stroke-opacity="0.95" stroke-width="2.11792" stroke-linecap="square" stroke-linejoin="round"/>
<path d="M113.024 751.745C115.125 752.459 117.402 751.348 118.111 749.263C118.82 747.179 117.691 744.91 115.591 744.196C113.49 743.482 111.213 744.593 110.504 746.677C109.795 748.762 110.924 751.031 113.024 751.745Z" fill="#60F7F7" fill-opacity="0.95"/>
<path d="M210.963 787.561C213.064 788.275 215.341 787.164 216.05 785.08C216.758 782.995 215.63 780.726 213.529 780.012C211.429 779.298 209.151 780.409 208.442 782.494C207.734 784.578 208.862 786.847 210.963 787.561Z" fill="#60F7F7" fill-opacity="0.95"/>
<path d="M361.911 510.024L209.399 958.664C208.676 960.791 207.131 962.542 205.104 963.531C203.077 964.519 200.734 964.666 198.59 963.937L66.6534 919.086C64.5149 918.353 62.7522 916.809 61.7519 914.791C60.7515 912.774 60.5952 910.448 61.3172 908.324L63.282 902.544" stroke="#60F7F7" stroke-opacity="0.95" stroke-width="2.11792" stroke-linecap="square" stroke-linejoin="round"/>
<path d="M358.044 508.905C358.298 508.159 358.769 507.505 359.398 507.026C360.027 506.548 360.785 506.266 361.577 506.216C362.37 506.167 363.16 506.352 363.848 506.749C364.536 507.145 365.092 507.735 365.444 508.444C365.797 509.152 365.931 509.948 365.828 510.73C365.726 511.512 365.393 512.246 364.871 512.837C364.348 513.429 363.66 513.853 362.894 514.055C362.127 514.257 361.317 514.229 360.564 513.973C360.065 513.803 359.604 513.537 359.207 513.191C358.81 512.844 358.485 512.424 358.251 511.953C358.017 511.483 357.878 510.971 357.843 510.448C357.807 509.925 357.876 509.401 358.044 508.905Z" fill="#60F7F7" fill-opacity="0.95"/>
<path d="M67.0037 904.025C67.2578 903.277 67.2826 902.471 67.0749 901.707C66.8672 900.944 66.4365 900.258 65.8372 899.736C65.238 899.214 64.4972 898.88 63.7088 898.776C62.9204 898.673 62.1198 898.804 61.4085 899.153C60.6973 899.502 60.1073 900.054 59.7135 900.738C59.3196 901.423 59.1396 902.209 59.1961 902.997C59.2527 903.785 59.5434 904.54 60.0313 905.166C60.5192 905.792 61.1824 906.261 61.9368 906.513C62.9439 906.849 64.0423 906.777 64.9918 906.31C65.9412 905.844 66.6646 905.022 67.0037 904.025Z" fill="#60F7F7" fill-opacity="0.95"/>
<path d="M429.815 924.309L427.396 931.426C427.033 932.485 426.885 933.606 426.961 934.724C427.037 935.843 427.335 936.936 427.838 937.941C428.341 938.946 429.039 939.843 429.891 940.58C430.744 941.317 431.734 941.879 432.805 942.234L434.786 942.908C435.849 943.266 436.831 943.83 437.676 944.566C438.521 945.302 439.213 946.196 439.71 947.196C440.208 948.197 440.502 949.284 440.576 950.396C440.65 951.509 440.503 952.623 440.142 953.676L439.694 954.993C439.338 956.048 438.776 957.022 438.04 957.859C437.303 958.695 436.407 959.378 435.403 959.868C434.398 960.358 433.305 960.646 432.187 960.714C431.068 960.782 429.946 960.63 428.885 960.267L407.985 953.162C405.841 952.433 404.073 950.889 403.068 948.87C402.064 946.85 401.906 944.521 402.629 942.393L491.419 681.203C492.141 679.079 491.984 676.753 490.984 674.736C489.984 672.718 488.221 671.174 486.083 670.441L463.855 662.885C462.795 662.524 461.816 661.96 460.973 661.224C460.131 660.487 459.442 659.594 458.946 658.594C458.451 657.594 458.158 656.508 458.084 655.398C458.011 654.287 458.159 653.175 458.519 652.123L478.501 593.343C479.218 591.217 479.056 588.891 478.051 586.876C477.045 584.861 475.279 583.321 473.139 582.594L367.688 546.747" stroke="#60F7F7" stroke-opacity="0.95" stroke-width="2.11792" stroke-linecap="square" stroke-linejoin="round"/>
<path d="M366.621 550.596C368.722 551.31 370.999 550.199 371.708 548.115C372.416 546.03 371.288 543.761 369.187 543.047C367.087 542.333 364.809 543.444 364.101 545.529C363.392 547.613 364.52 549.882 366.621 550.596Z" fill="#60F7F7" fill-opacity="0.95"/>
<path d="M-42.1961 510.619L-80.9847 497.433C-83.1283 496.704 -84.8969 495.16 -85.9013 493.141C-86.9057 491.121 -87.0637 488.791 -86.3406 486.664L-85.7726 484.993C-85.0494 482.866 -83.5043 481.115 -81.4772 480.126C-79.4501 479.137 -77.1069 478.991 -74.9633 479.72L410.687 644.813C412.83 645.542 414.599 647.086 415.603 649.105C416.608 651.125 416.766 653.454 416.043 655.581L402.643 694.998C402.289 696.05 402.146 697.161 402.224 698.27C402.302 699.378 402.599 700.461 403.097 701.457C403.596 702.454 404.287 703.344 405.13 704.076C405.973 704.809 406.953 705.37 408.013 705.727L447.039 718.994C449.183 719.723 450.951 721.266 451.956 723.286C452.96 725.305 453.118 727.635 452.395 729.762L451.259 733.104C450.536 735.232 448.99 736.982 446.963 737.971C444.936 738.96 442.593 739.106 440.45 738.378L415.786 729.993" stroke="#60F7F7" stroke-opacity="0.95" stroke-width="2.11792" stroke-linecap="square" stroke-linejoin="round"/>
<path d="M339.444 633.489L289.783 779.576C289.06 781.703 289.218 784.033 290.223 786.052C291.227 788.072 292.996 789.616 295.139 790.344L373.212 816.884C374.275 817.243 375.257 817.806 376.102 818.542C376.947 819.278 377.638 820.172 378.136 821.173C378.634 822.173 378.928 823.261 379.002 824.373C379.076 825.485 378.928 826.6 378.568 827.653L377.231 831.585C376.875 832.64 376.313 833.613 375.577 834.45C374.84 835.286 373.944 835.969 372.939 836.459C371.935 836.949 370.842 837.237 369.724 837.305C368.605 837.374 367.483 837.222 366.422 836.858L340.411 828.016" stroke="#60F7F7" stroke-opacity="0.95" stroke-width="2.11792" stroke-linecap="square" stroke-linejoin="round"/>
<path d="M335.605 632.403C335.859 631.656 336.331 631.001 336.961 630.522C337.591 630.043 338.35 629.762 339.143 629.714C339.936 629.665 340.727 629.852 341.416 630.25C342.104 630.648 342.659 631.24 343.01 631.951C343.361 632.661 343.492 633.458 343.387 634.241C343.282 635.023 342.946 635.756 342.421 636.347C341.896 636.937 341.205 637.359 340.437 637.557C339.669 637.756 338.857 637.724 338.105 637.464C337.607 637.294 337.146 637.029 336.75 636.682C336.355 636.336 336.031 635.915 335.799 635.445C335.567 634.975 335.43 634.464 335.396 633.942C335.363 633.42 335.434 632.897 335.605 632.403Z" fill="#60F7F7" fill-opacity="0.95"/>
<path d="M341.866 824.387C341.113 824.131 340.301 824.102 339.534 824.305C338.767 824.508 338.079 824.933 337.556 825.526C337.034 826.119 336.702 826.854 336.601 827.637C336.5 828.421 336.636 829.217 336.991 829.925C337.346 830.634 337.903 831.223 338.594 831.618C339.284 832.012 340.076 832.195 340.869 832.142C341.661 832.09 342.42 831.804 343.047 831.322C343.675 830.84 344.143 830.183 344.393 829.435C344.561 828.94 344.629 828.417 344.593 827.895C344.557 827.373 344.418 826.863 344.183 826.393C343.948 825.924 343.622 825.506 343.225 825.161C342.827 824.817 342.365 824.554 341.866 824.387Z" fill="#60F7F7" fill-opacity="0.95"/>
<path d="M518.041 287.273L418.316 253.372C416.172 252.644 414.404 251.1 413.399 249.08C412.395 247.061 412.237 244.731 412.96 242.604L426.713 202.145C427.436 200.018 428.982 198.267 431.009 197.278C433.036 196.29 435.379 196.143 437.523 196.872L439.979 197.707C441.04 198.071 442.162 198.223 443.281 198.154C444.399 198.086 445.492 197.798 446.497 197.308C447.501 196.818 448.397 196.136 449.134 195.299C449.87 194.462 450.433 193.489 450.788 192.434L482.867 98.0702C483.227 97.017 483.375 95.9024 483.301 94.7903C483.227 93.6783 482.933 92.5906 482.435 91.59C481.937 90.5894 481.246 89.6954 480.401 88.9595C479.556 88.2235 478.574 87.6601 477.511 87.3017L402.053 61.6505C399.909 60.9217 398.141 59.3778 397.136 57.3583C396.132 55.3388 395.974 53.0092 396.697 50.8819L402.15 34.8401" stroke="#60F7F7" stroke-opacity="0.95" stroke-width="2.11792" stroke-linecap="square" stroke-linejoin="round"/>
<path d="M354.942 228.211L357.461 220.799C358.182 218.677 359.724 216.931 361.746 215.944C363.768 214.958 366.105 214.812 368.244 215.539L371.255 216.563C373.393 217.289 375.158 218.83 376.16 220.844C377.162 222.859 377.319 225.183 376.598 227.305L343.851 323.634C343.129 325.758 341.588 327.507 339.565 328.497C337.543 329.486 335.204 329.637 333.062 328.914L217.389 289.592C215.246 288.864 212.903 289.01 210.876 289.999C208.848 290.988 207.303 292.738 206.58 294.866L179.768 373.738C178.265 378.161 232.552 436.442 231.042 440.885L277.97 388.392" stroke="#60F7F7" stroke-opacity="0.95" stroke-width="2.11792" stroke-linecap="square" stroke-linejoin="round"/>
<path d="M358.785 229.322C358.531 230.069 358.059 230.723 357.429 231.202C356.799 231.681 356.039 231.962 355.246 232.011C354.453 232.059 353.662 231.873 352.974 231.474C352.286 231.076 351.731 230.484 351.38 229.774C351.029 229.063 350.897 228.266 351.002 227.484C351.107 226.701 351.443 225.968 351.969 225.378C352.494 224.787 353.185 224.366 353.953 224.167C354.721 223.968 355.533 224.001 356.284 224.261C356.783 224.43 357.243 224.696 357.639 225.042C358.035 225.389 358.358 225.809 358.591 226.279C358.823 226.75 358.96 227.26 358.993 227.783C359.026 228.305 358.956 228.828 358.785 229.322Z" fill="#60F7F7" fill-opacity="0.95"/>
<path d="M280.842 391.186C281.369 390.605 281.71 389.88 281.822 389.103C281.935 388.327 281.812 387.534 281.471 386.824C281.13 386.115 280.586 385.521 279.906 385.117C279.227 384.714 278.444 384.519 277.655 384.558C276.866 384.596 276.108 384.866 275.476 385.334C274.844 385.801 274.366 386.445 274.104 387.184C273.841 387.923 273.805 388.724 274 389.486C274.196 390.247 274.614 390.935 275.201 391.462C275.994 392.159 277.029 392.521 278.083 392.469C279.138 392.418 280.128 391.957 280.842 391.186Z" fill="#60F7F7" fill-opacity="0.95"/>
<path d="M772.213 496.443L658.7 457.855C656.56 457.127 654.221 457.272 652.196 458.257C650.171 459.241 648.625 460.986 647.898 463.108L595.229 618.042C594.506 620.169 592.961 621.92 590.934 622.909C588.907 623.897 586.564 624.044 584.42 623.315L546.146 610.304C544.003 609.575 542.234 608.031 541.23 606.012C540.225 603.993 540.067 601.663 540.79 599.536L554.825 558.252C555.547 556.128 555.39 553.802 554.39 551.784C553.39 549.767 551.627 548.222 549.488 547.49L368.64 486.012" stroke="#60F7F7" stroke-opacity="0.95" stroke-width="2.11792" stroke-linecap="square" stroke-linejoin="round"/>
<path d="M367.561 489.814C369.661 490.528 371.939 489.417 372.647 487.333C373.356 485.248 372.228 482.979 370.127 482.265C368.026 481.551 365.749 482.662 365.04 484.747C364.331 486.831 365.46 489.1 367.561 489.814Z" fill="#60F7F7" fill-opacity="0.95"/>
<path d="M256.361 -333.661L103.849 114.979C103.49 116.037 103.344 117.157 103.422 118.273C103.5 119.389 103.799 120.48 104.303 121.483C104.806 122.486 105.504 123.381 106.355 124.116C107.207 124.852 108.196 125.413 109.265 125.767L241.202 170.618C243.344 171.341 245.682 171.19 247.705 170.201C249.728 169.211 251.269 167.462 251.991 165.338L253.956 159.559" stroke="#60F7F7" stroke-opacity="0.95" stroke-width="2.11792" stroke-linecap="square" stroke-linejoin="round"/>
<path d="M257.627 161.025C257.881 160.278 257.906 159.472 257.699 158.71C257.492 157.947 257.062 157.261 256.464 156.739C255.866 156.217 255.127 155.883 254.34 155.777C253.552 155.672 252.752 155.801 252.041 156.148C251.33 156.495 250.739 157.045 250.343 157.727C249.947 158.409 249.765 159.194 249.818 159.981C249.872 160.769 250.159 161.524 250.643 162.152C251.128 162.779 251.788 163.25 252.54 163.506C253.04 163.676 253.567 163.746 254.093 163.714C254.619 163.681 255.133 163.545 255.605 163.315C256.078 163.084 256.499 162.764 256.846 162.371C257.193 161.978 257.458 161.52 257.627 161.025Z" fill="#60F7F7" fill-opacity="0.95"/>
<path d="M160.252 374.231L182.974 307.39C183.697 305.262 183.539 302.933 182.534 300.913C181.53 298.894 179.761 297.35 177.618 296.621L25.8311 245.022C23.6908 244.295 21.9243 242.755 20.919 240.74C19.9137 238.725 19.7517 236.399 20.4684 234.274L27.539 213.474C28.2604 211.352 28.1027 209.028 27.1007 207.014C26.0988 204.999 24.3345 203.459 22.1961 202.732L-92.9216 163.599C-95.06 162.866 -96.8228 161.321 -97.8231 159.304C-98.8234 157.287 -98.9798 154.961 -98.2578 152.837L-96.293 147.057" stroke="#60F7F7" stroke-opacity="0.95" stroke-width="2.11792" stroke-linecap="square" stroke-linejoin="round"/>
<path d="M164.133 375.352C163.879 376.099 163.408 376.753 162.779 377.231C162.15 377.71 161.391 377.992 160.599 378.041C159.807 378.091 159.017 377.905 158.329 377.509C157.64 377.112 157.085 376.522 156.732 375.814C156.38 375.105 156.246 374.309 156.348 373.527C156.45 372.745 156.784 372.012 157.306 371.42C157.828 370.828 158.516 370.404 159.283 370.202C160.049 370 160.86 370.029 161.612 370.285C162.113 370.452 162.576 370.716 162.975 371.062C163.373 371.408 163.699 371.829 163.934 372.3C164.168 372.772 164.306 373.284 164.341 373.808C164.375 374.332 164.304 374.857 164.133 375.352Z" fill="#60F7F7" fill-opacity="0.95"/>
<path d="M105.582 -16.0606L39.3608 178.741C39.0057 179.795 38.4446 180.767 37.7098 181.603C36.975 182.438 36.0809 183.121 35.0787 183.611C34.0764 184.102 32.9858 184.391 31.8692 184.461C30.7525 184.531 29.6319 184.382 28.5714 184.021L-28.6606 164.566C-29.7211 164.205 -30.7006 163.641 -31.543 162.904C-32.3854 162.168 -33.0742 161.275 -33.5699 160.275C-34.0656 159.275 -34.3584 158.189 -34.4317 157.079C-34.5049 155.968 -34.3571 154.855 -33.9968 153.804L-32.6602 149.872C-31.937 147.745 -32.095 145.415 -33.0995 143.396C-34.1039 141.376 -35.8725 139.832 -38.0161 139.104L-41.3839 137.959C-43.5275 137.23 -45.8707 137.376 -47.8978 138.365C-49.9249 139.354 -51.47 141.105 -52.1932 143.232L-52.8615 145.198C-53.5828 147.32 -55.1241 149.066 -57.1463 150.053C-59.1685 151.039 -61.5058 151.185 -63.6442 150.458L-65.6253 149.785C-66.6866 149.427 -67.6675 148.865 -68.5117 148.131C-69.3559 147.396 -70.0469 146.504 -70.545 145.506C-71.0432 144.507 -71.3387 143.422 -71.4147 142.312C-71.4907 141.202 -71.3456 140.088 -70.9879 139.036L36.2002 -176.276C36.9233 -178.403 38.4684 -180.154 40.4955 -181.143C42.5226 -182.132 44.8658 -182.278 47.0094 -181.549L106.242 -161.414C108.384 -160.691 110.723 -160.842 112.746 -161.831C114.768 -162.821 116.31 -164.57 117.032 -166.694L131.333 -208.764C132.056 -210.891 133.601 -212.642 135.629 -213.631C137.656 -214.62 139.999 -214.766 142.142 -214.037L180.277 -201.074" stroke="#60F7F7" stroke-opacity="0.95" stroke-width="2.11792" stroke-linecap="square" stroke-linejoin="round"/>
<path d="M110.334 -91.9499L26.6237 154.3C25.9005 156.427 24.3554 158.178 22.3283 159.167C20.3012 160.156 17.9581 160.302 15.8144 159.573L13.1202 158.657C10.9818 157.925 9.21909 156.38 8.21874 154.363C7.21839 152.345 7.06207 150.019 7.78407 147.896L47.0665 32.3394C47.7897 30.2121 47.6317 27.8825 46.6272 25.863C45.6228 23.8435 43.8542 22.2996 41.7106 21.5709L39.7296 20.8974C37.5859 20.1687 35.2428 20.3149 33.2157 21.3038C31.1885 22.2927 29.6434 24.0434 28.9203 26.1707L7.88232 88.0575" stroke="#60F7F7" stroke-opacity="0.95" stroke-width="2.11792" stroke-linecap="square" stroke-linejoin="round"/>
<path d="M4.1241 86.5609C3.87032 87.3075 3.84531 88.1131 4.05225 88.8759C4.25918 89.6387 4.68876 90.3244 5.28666 90.8463C5.88455 91.3683 6.62391 91.703 7.41124 91.8082C8.19857 91.9134 8.99851 91.7843 9.7099 91.4372C10.4213 91.0902 11.0122 90.5407 11.4079 89.8584C11.8035 89.1762 11.9862 88.3916 11.9328 87.604C11.8793 86.8165 11.5922 86.0612 11.1077 85.4339C10.6232 84.8065 9.96308 84.3351 9.2108 84.0794C8.20203 83.7365 7.09939 83.8052 6.14545 84.2706C5.19151 84.736 4.46441 85.5598 4.1241 86.5609Z" fill="#60F7F7" fill-opacity="0.95"/>
<path d="M-276.325 78.8805L-211.961 100.76C-209.818 101.489 -208.049 103.033 -207.045 105.053C-206.04 107.072 -205.882 109.402 -206.606 111.529L-207.274 113.495C-207.641 114.556 -207.791 115.681 -207.716 116.803C-207.642 117.924 -207.343 119.021 -206.839 120.029C-206.334 121.038 -205.634 121.937 -204.778 122.675C-203.921 123.414 -202.927 123.976 -201.852 124.33L-162.885 137.576C-160.747 138.303 -158.982 139.843 -157.98 141.858C-156.979 143.872 -156.821 146.196 -157.542 148.318L-260.193 450.282C-260.916 452.409 -260.758 454.739 -259.753 456.758C-258.749 458.778 -256.98 460.322 -254.837 461.05L-234.472 467.973C-232.328 468.702 -229.985 468.556 -227.958 467.567C-225.931 466.578 -224.385 464.827 -223.662 462.7L-203.226 402.583C-202.504 400.459 -200.962 398.71 -198.94 397.72C-196.917 396.73 -194.578 396.58 -192.436 397.303L-151.33 411.276C-149.19 412.004 -146.851 411.859 -144.825 410.875C-142.8 409.89 -141.255 408.145 -140.527 406.023L-126.914 365.977C-126.556 364.924 -125.992 363.952 -125.255 363.117C-124.518 362.282 -123.623 361.6 -122.619 361.11C-121.615 360.621 -120.523 360.333 -119.406 360.263C-118.288 360.193 -117.166 360.343 -116.105 360.704L-4.61244 398.605" stroke="#60F7F7" stroke-opacity="0.95" stroke-width="2.11792" stroke-linecap="square" stroke-linejoin="round"/>
<path d="M-6.12915 402.258C-5.37736 402.518 -4.56593 402.55 -3.79765 402.351C-3.02936 402.152 -2.33882 401.731 -1.81356 401.141C-1.28829 400.55 -0.951935 399.817 -0.847111 399.035C-0.742287 398.252 -0.873707 397.455 -1.22473 396.745C-1.57576 396.034 -2.13059 395.442 -2.81889 395.044C-3.5072 394.646 -4.298 394.459 -5.09108 394.508C-5.88417 394.556 -6.64385 394.837 -7.27383 395.316C-7.90381 395.795 -8.37572 396.449 -8.62979 397.197C-8.96895 398.195 -8.89632 399.287 -8.42773 400.235C-7.95914 401.184 -7.13272 401.911 -6.12915 402.258Z" fill="#60F7F7" fill-opacity="0.95"/>
<path d="M92.7837 350.463L-53.8126 300.629C-55.9511 299.896 -57.7138 298.352 -58.7141 296.334C-59.7145 294.317 -59.8708 291.991 -59.1488 289.867L-51.6572 267.829C-50.9386 265.716 -51.0897 263.402 -52.0778 261.39C-53.0659 259.379 -54.8111 257.833 -56.9339 257.088L-116.147 236.959C-117.216 236.604 -118.205 236.043 -119.057 235.308C-119.908 234.572 -120.606 233.677 -121.109 232.674C-121.613 231.672 -121.912 230.581 -121.99 229.464C-122.067 228.348 -121.922 227.228 -121.562 226.17L-121.335 225.502C-120.975 224.443 -120.408 223.467 -119.666 222.63C-118.924 221.792 -118.022 221.109 -117.012 220.621C-116.001 220.133 -114.903 219.848 -113.78 219.784C-112.656 219.72 -111.53 219.878 -110.466 220.249L-32.394 246.789C-31.3326 247.149 -30.3521 247.714 -29.5085 248.451C-28.6649 249.187 -27.9747 250.081 -27.4773 251.081C-26.98 252.081 -26.6852 253.167 -26.6098 254.279C-26.5344 255.39 -26.68 256.504 -27.038 257.557L-33.6207 276.921C-33.9788 277.975 -34.1243 279.089 -34.0489 280.2C-33.9736 281.311 -33.6788 282.398 -33.1814 283.398C-32.6841 284.398 -31.9939 285.291 -31.1503 286.028C-30.3067 286.764 -29.3262 287.329 -28.2648 287.69L-2.92738 296.303" stroke="#60F7F7" stroke-opacity="0.95" stroke-width="2.11792" stroke-linecap="square" stroke-linejoin="round"/>
<path d="M93.8212 346.713C94.5735 346.969 95.2336 347.44 95.7181 348.067C96.2026 348.695 96.4897 349.45 96.5431 350.238C96.5966 351.025 96.4139 351.81 96.0182 352.492C95.6226 353.174 95.0317 353.724 94.3203 354.071C93.6089 354.418 92.809 354.547 92.0216 354.442C91.2343 354.337 90.4949 354.002 89.897 353.48C89.2991 352.958 88.8696 352.272 88.6626 351.509C88.4557 350.747 88.4807 349.941 88.7345 349.195C88.9006 348.697 89.1644 348.238 89.5107 347.844C89.857 347.449 90.2789 347.127 90.752 346.896C91.225 346.666 91.7398 346.531 92.2667 346.499C92.7935 346.468 93.3218 346.54 93.8212 346.713Z" fill="#60F7F7" fill-opacity="0.95"/>
<path d="M-4.40163 300.011C-3.64984 300.271 -2.83839 300.303 -2.07011 300.104C-1.30183 299.906 -0.611315 299.484 -0.0860494 298.894C0.439216 298.303 0.775572 297.57 0.880396 296.788C0.98522 296.005 0.853801 295.208 0.502776 294.498C0.15175 293.787 -0.403053 293.195 -1.09136 292.797C-1.77966 292.399 -2.57046 292.212 -3.36354 292.261C-4.15663 292.309 -4.91631 292.591 -5.54629 293.069C-6.17627 293.548 -6.64818 294.203 -6.90225 294.95C-7.24142 295.948 -7.16878 297.04 -6.70019 297.988C-6.2316 298.937 -5.4052 299.664 -4.40163 300.011Z" fill="#60F7F7" fill-opacity="0.95"/>
<path d="M59.9777 358.671L-64.748 316.271" stroke="#60F7F7" stroke-opacity="0.95" stroke-width="2.11792" stroke-linecap="square" stroke-linejoin="round"/>
<path d="M61.0653 354.831C61.8176 355.086 62.4777 355.558 62.9622 356.185C63.4467 356.813 63.7339 357.568 63.7873 358.355C63.8407 359.143 63.6581 359.927 63.2624 360.61C62.8667 361.292 62.2758 361.841 61.5644 362.189C60.853 362.536 60.0531 362.665 59.2658 362.56C58.4785 362.454 57.7391 362.12 57.1412 361.598C56.5433 361.076 56.1137 360.39 55.9068 359.627C55.6998 358.864 55.7248 358.059 55.9786 357.312C56.1448 356.815 56.4086 356.356 56.7549 355.961C57.1012 355.567 57.5231 355.245 57.9961 355.014C58.4691 354.783 58.984 354.648 59.5108 354.617C60.0376 354.585 60.566 354.658 61.0653 354.831Z" fill="#60F7F7" fill-opacity="0.95"/>
<path d="M30.1752 474.494L-65.4492 441.987" stroke="#60F7F7" stroke-opacity="0.95" stroke-width="2.11792" stroke-linecap="square" stroke-linejoin="round"/>
<path d="M31.2711 470.658C32.0264 470.91 32.6902 471.38 33.1782 472.006C33.6663 472.633 33.9565 473.389 34.0121 474.179C34.0677 474.968 33.8862 475.755 33.4905 476.439C33.0949 477.123 32.503 477.674 31.79 478.022C31.077 478.37 30.2751 478.499 29.4862 478.392C28.6972 478.286 27.9568 477.949 27.3589 477.424C26.761 476.9 26.3327 476.211 26.1283 475.446C25.9239 474.68 25.9526 473.873 26.2109 473.126C26.5541 472.134 27.278 471.318 28.2255 470.856C29.173 470.393 30.2674 470.322 31.2711 470.658Z" fill="#60F7F7" fill-opacity="0.95"/>
<path d="M60.9611 360.938L83.5763 294.412C84.2983 292.288 84.1419 289.962 83.1416 287.945C82.1412 285.927 80.3785 284.383 78.2401 283.65L58.7071 277.01C56.5651 276.287 54.2263 276.438 52.2037 277.427C50.181 278.417 48.6397 280.166 47.9177 282.29L46.7816 285.632C46.0584 287.759 44.5133 289.51 42.4862 290.499C40.4591 291.488 38.116 291.634 35.9723 290.905L-3.74737 277.403C-5.89101 276.674 -7.65958 275.13 -8.66402 273.111C-9.66845 271.091 -9.82648 268.761 -9.10333 266.634L-7.51278 261.955C-6.78963 259.828 -5.24453 258.077 -3.2174 257.088C-1.19028 256.099 1.15284 255.953 3.29648 256.682L28.6735 265.309" stroke="#60F7F7" stroke-opacity="0.95" stroke-width="2.11792" stroke-linecap="square" stroke-linejoin="round"/>
<path d="M64.8172 362.054C64.5634 362.801 64.0923 363.455 63.4633 363.934C62.8344 364.412 62.0759 364.694 61.2837 364.743C60.4916 364.793 59.7014 364.608 59.0131 364.211C58.3248 363.815 57.7693 363.225 57.4168 362.516C57.0643 361.807 56.9307 361.012 57.0328 360.23C57.1349 359.448 57.4683 358.714 57.9906 358.122C58.513 357.531 59.2009 357.107 59.9674 356.905C60.7338 356.703 61.5445 356.731 62.2968 356.987C63.3055 357.33 64.1378 358.056 64.6105 359.007C65.0831 359.957 65.1575 361.053 64.8172 362.054Z" fill="#60F7F7" fill-opacity="0.95"/>
<path d="M27.1753 269.012C27.9277 269.281 28.7426 269.321 29.5159 269.127C30.2892 268.934 30.9857 268.515 31.5164 267.924C32.0471 267.334 32.3879 266.599 32.4952 265.813C32.6026 265.027 32.4716 264.227 32.1191 263.513C31.7665 262.799 31.2083 262.206 30.516 261.807C29.8236 261.409 29.0284 261.224 28.2321 261.277C27.4357 261.33 26.6744 261.618 26.0454 262.103C25.4164 262.589 24.9483 263.251 24.7009 264.004C24.3766 264.992 24.4538 266.068 24.916 267.003C25.3782 267.939 26.1889 268.66 27.1753 269.012Z" fill="#60F7F7" fill-opacity="0.95"/>
<path d="M311.595 424.099L413.718 458.815C415.861 459.544 418.204 459.398 420.232 458.409C422.259 457.42 423.804 455.669 424.527 453.542L438.982 411.019" stroke="#60F7F7" stroke-opacity="0.95" stroke-width="2.11792" stroke-linecap="square" stroke-linejoin="round"/>
<path d="M310.5 427.937C312.601 428.651 314.878 427.54 315.587 425.455C316.295 423.371 315.167 421.102 313.066 420.388C310.966 419.674 308.688 420.785 307.98 422.869C307.271 424.954 308.399 427.223 310.5 427.937Z" fill="#60F7F7" fill-opacity="0.95"/>
<path d="M378.451 510.164L490.379 548.213" stroke="#60F7F7" stroke-opacity="0.95" stroke-width="2.11792" stroke-linecap="square" stroke-linejoin="round"/>
<path d="M377.346 513.998C379.446 514.712 381.724 513.601 382.432 511.517C383.141 509.432 382.013 507.163 379.912 506.449C377.811 505.735 375.534 506.846 374.825 508.931C374.117 511.015 375.245 513.284 377.346 513.998Z" fill="#60F7F7" fill-opacity="0.95"/>
</g>
</g>
</svg>
