<svg width="9" height="8" viewBox="0 0 9 8" fill="none" xmlns="http://www.w3.org/2000/svg">
<path d="M6.91016 3.77734C6.96884 3.83659 7.00176 3.91661 7.00176 4C7.00176 4.08339 6.96884 4.16341 6.91016 4.22266L4.09766 7.03516C4.03767 7.09249 3.95798 7.12465 3.875 7.125C3.83353 7.12482 3.79245 7.11687 3.75391 7.10156C3.69703 7.07766 3.6485 7.03745 3.61444 6.98601C3.58038 6.93457 3.56231 6.8742 3.5625 6.8125V4.3125H0.75C0.66712 4.3125 0.587634 4.27958 0.529029 4.22097C0.470424 4.16237 0.4375 4.08288 0.4375 4C0.4375 3.91712 0.470424 3.83763 0.529029 3.77903C0.587634 3.72042 0.66712 3.6875 0.75 3.6875H3.5625V1.1875C3.56231 1.1258 3.58038 1.06543 3.61444 1.01399C3.6485 0.962551 3.69703 0.922344 3.75391 0.898437C3.81163 0.875923 3.87455 0.870212 3.93538 0.881963C3.99621 0.893715 4.05247 0.92245 4.09766 0.964844L6.91016 3.77734ZM7.9375 0.25C7.85462 0.25 7.77513 0.282924 7.71653 0.341529C7.65792 0.400134 7.625 0.47962 7.625 0.5625V7.4375C7.625 7.52038 7.65792 7.59987 7.71653 7.65847C7.77513 7.71708 7.85462 7.75 7.9375 7.75C8.02038 7.75 8.09987 7.71708 8.15847 7.65847C8.21708 7.59987 8.25 7.52038 8.25 7.4375V0.5625C8.25 0.47962 8.21708 0.400134 8.15847 0.341529C8.09987 0.282924 8.02038 0.25 7.9375 0.25V0.25Z" fill="#011318"/>
</svg>
