<svg width="12" height="12" viewBox="0 0 12 12" fill="none" xmlns="http://www.w3.org/2000/svg">
<path d="M5.99935 0.166504C2.7846 0.166504 0.166016 2.78509 0.166016 5.99984C0.166016 9.21459 2.7846 11.8332 5.99935 11.8332C9.2141 11.8332 11.8327 9.21459 11.8327 5.99984C11.8327 2.78509 9.2141 0.166504 5.99935 0.166504ZM5.99935 1.33317C8.58359 1.33317 10.666 3.4156 10.666 5.99984C10.666 8.58408 8.58359 10.6665 5.99935 10.6665C3.41511 10.6665 1.33268 8.58408 1.33268 5.99984C1.33268 3.4156 3.41511 1.33317 5.99935 1.33317ZM5.99935 2.49984C4.71018 2.49984 3.66602 3.54401 3.66602 4.83317H4.83268C4.83268 4.19151 5.35768 3.66651 5.99935 3.66651C6.64102 3.66651 7.16602 4.19151 7.16602 4.83317C7.16602 5.99984 5.41602 6.21392 5.41602 7.74984H6.58268C6.58268 6.78676 8.33269 6.29151 8.33269 4.83317C8.33269 3.54401 7.28852 2.49984 5.99935 2.49984ZM5.41602 8.33317V9.49984H6.58268V8.33317H5.41602Z" fill="#B9B9B9"/>
</svg>
