<svg width="27" height="27" viewBox="0 0 27 27" fill="none" xmlns="http://www.w3.org/2000/svg">
<path d="M26.0153 16.1999L24.2692 13.8796C24.2809 13.6687 24.2692 13.446 24.2692 13.282L26.0153 10.9499C26.1021 10.8365 26.1611 10.7042 26.1876 10.5638C26.214 10.4233 26.2072 10.2787 26.1676 10.1414C25.8723 9.06095 25.4432 8.02166 24.8903 7.0476C24.8189 6.92387 24.7209 6.8176 24.6033 6.73651C24.4857 6.65542 24.3516 6.60157 24.2106 6.57886L21.3395 6.1687L20.9059 5.7351L20.4957 2.86401C20.4728 2.72455 20.4201 2.59166 20.3413 2.47438C20.2624 2.35709 20.1592 2.25817 20.0387 2.18432C19.0595 1.63344 18.0166 1.20447 16.9332 0.90698C16.7959 0.867401 16.6512 0.860566 16.5108 0.887023C16.3704 0.913481 16.2381 0.972493 16.1246 1.05932L13.8043 2.7937H13.1949L10.8746 1.05932C10.7611 0.972493 10.6289 0.913481 10.4884 0.887023C10.348 0.860566 10.2033 0.867401 10.066 0.90698C8.98563 1.20232 7.94634 1.63142 6.97228 2.18432C6.84855 2.25566 6.74227 2.35368 6.66119 2.47126C6.5801 2.58883 6.52624 2.723 6.50353 2.86401L6.09338 5.7351L5.65978 6.1687L2.78869 6.57886C2.64768 6.60157 2.51351 6.65542 2.39594 6.73651C2.27836 6.8176 2.18034 6.92387 2.109 7.0476C1.5561 8.02166 1.12699 9.06095 0.831659 10.1414C0.79208 10.2787 0.785245 10.4233 0.811702 10.5638C0.838159 10.7042 0.897172 10.8365 0.984003 10.9499L2.7301 13.2703V13.8679L0.984003 16.1999C0.897172 16.3134 0.838159 16.4457 0.811702 16.5861C0.785245 16.7266 0.79208 16.8712 0.831659 17.0085C1.12699 18.0889 1.5561 19.1282 2.109 20.1023C2.18034 20.226 2.27836 20.3323 2.39594 20.4134C2.51351 20.4945 2.64768 20.5483 2.78869 20.571L5.65978 20.9812L6.09338 21.4148L6.50353 24.2859C6.52624 24.4269 6.5801 24.5611 6.66119 24.6786C6.74227 24.7962 6.84855 24.8942 6.97228 24.9656C7.94634 25.5185 8.98563 25.9476 10.066 26.2429C10.146 26.2661 10.2289 26.2779 10.3121 26.2781C10.5154 26.2807 10.7136 26.2146 10.8746 26.0906L13.1949 24.3562H13.8043L16.1246 26.0906C16.2381 26.1774 16.3704 26.2364 16.5108 26.2629C16.6512 26.2893 16.7959 26.2825 16.9332 26.2429C18.0143 25.9497 19.0539 25.5205 20.027 24.9656C20.1507 24.8942 20.257 24.7962 20.3381 24.6786C20.4192 24.5611 20.473 24.4269 20.4957 24.2859L20.9059 21.4031C21.0465 21.2624 21.2106 21.1101 21.3278 20.9812L24.2106 20.571C24.3516 20.5483 24.4857 20.4945 24.6033 20.4134C24.7209 20.3323 24.8189 20.226 24.8903 20.1023C25.4432 19.1282 25.8723 18.0889 26.1676 17.0085C26.2072 16.8712 26.214 16.7266 26.1876 16.5861C26.1611 16.4457 26.1021 16.3134 26.0153 16.1999V16.1999ZM13.4996 18.7312C12.4798 18.7312 11.4829 18.4288 10.635 17.8622C9.78703 17.2956 9.12614 16.4903 8.73587 15.5482C8.34561 14.606 8.2435 13.5692 8.44245 12.569C8.64141 11.5688 9.13249 10.65 9.85361 9.92893C10.5747 9.20781 11.4935 8.71673 12.4937 8.51777C13.4939 8.31882 14.5307 8.42093 15.4728 8.81119C16.415 9.20146 17.2203 9.86235 17.7869 10.7103C18.3535 11.5582 18.6559 12.5551 18.6559 13.5749C18.6559 14.9425 18.1126 16.254 17.1456 17.221C16.1787 18.188 14.8671 18.7312 13.4996 18.7312Z" fill="#ECECEC"/>
</svg>
