<svg width="16" height="16" viewBox="0 0 16 16" fill="none" xmlns="http://www.w3.org/2000/svg">
<path d="M13 2.5H3C2.73478 2.5 2.48043 2.60536 2.29289 2.79289C2.10536 2.98043 2 3.23478 2 3.5V7.16875C2 12.7562 6.7375 14.6125 7.6875 14.925C7.88904 15.0002 8.11096 15.0002 8.3125 14.925C9.2625 14.6125 14 12.7562 14 7.16875V3.5C14 3.23478 13.8946 2.98043 13.7071 2.79289C13.5196 2.60536 13.2652 2.5 13 2.5V2.5ZM7.5 6C7.5 5.86739 7.55268 5.74021 7.64645 5.64645C7.74021 5.55268 7.86739 5.5 8 5.5C8.13261 5.5 8.25979 5.55268 8.35355 5.64645C8.44732 5.74021 8.5 5.86739 8.5 6V8.5C8.5 8.63261 8.44732 8.75979 8.35355 8.85355C8.25979 8.94732 8.13261 9 8 9C7.86739 9 7.74021 8.94732 7.64645 8.85355C7.55268 8.75979 7.5 8.63261 7.5 8.5V6ZM8 11.5C7.85166 11.5 7.70666 11.456 7.58332 11.3736C7.45999 11.2912 7.36386 11.1741 7.30709 11.037C7.25032 10.9 7.23547 10.7492 7.26441 10.6037C7.29335 10.4582 7.36478 10.3246 7.46967 10.2197C7.57456 10.1148 7.7082 10.0433 7.85368 10.0144C7.99917 9.98547 8.14997 10.0003 8.28701 10.0571C8.42406 10.1139 8.54119 10.21 8.6236 10.3333C8.70601 10.4567 8.75 10.6017 8.75 10.75C8.75 10.9489 8.67098 11.1397 8.53033 11.2803C8.38968 11.421 8.19891 11.5 8 11.5Z" fill="black"/>
<path d="M13 2.5H3C2.73478 2.5 2.48043 2.60536 2.29289 2.79289C2.10536 2.98043 2 3.23478 2 3.5V7.16875C2 12.7562 6.7375 14.6125 7.6875 14.925C7.88904 15.0002 8.11096 15.0002 8.3125 14.925C9.2625 14.6125 14 12.7562 14 7.16875V3.5C14 3.23478 13.8946 2.98043 13.7071 2.79289C13.5196 2.60536 13.2652 2.5 13 2.5V2.5ZM7.5 6C7.5 5.86739 7.55268 5.74021 7.64645 5.64645C7.74021 5.55268 7.86739 5.5 8 5.5C8.13261 5.5 8.25979 5.55268 8.35355 5.64645C8.44732 5.74021 8.5 5.86739 8.5 6V8.5C8.5 8.63261 8.44732 8.75979 8.35355 8.85355C8.25979 8.94732 8.13261 9 8 9C7.86739 9 7.74021 8.94732 7.64645 8.85355C7.55268 8.75979 7.5 8.63261 7.5 8.5V6ZM8 11.5C7.85166 11.5 7.70666 11.456 7.58332 11.3736C7.45999 11.2912 7.36386 11.1741 7.30709 11.037C7.25032 10.9 7.23547 10.7492 7.26441 10.6037C7.29335 10.4582 7.36478 10.3246 7.46967 10.2197C7.57456 10.1148 7.7082 10.0433 7.85368 10.0144C7.99917 9.98547 8.14997 10.0003 8.28701 10.0571C8.42406 10.1139 8.54119 10.21 8.6236 10.3333C8.70601 10.4567 8.75 10.6017 8.75 10.75C8.75 10.9489 8.67098 11.1397 8.53033 11.2803C8.38968 11.421 8.19891 11.5 8 11.5Z" fill="url(#paint0_linear_700_21977)"/>
<defs>
<linearGradient id="paint0_linear_700_21977" x1="2" y1="2.5" x2="14.4718" y2="14.4907" gradientUnits="userSpaceOnUse">
<stop stop-color="#F74063"/>
<stop offset="1" stop-color="#FECF90"/>
</linearGradient>
</defs>
</svg>
