<svg width="10" height="10" viewBox="0 0 10 10" fill="none" xmlns="http://www.w3.org/2000/svg">
<path d="M8.4375 1.25H2.8125C2.72962 1.25 2.65013 1.28292 2.59153 1.34153C2.53292 1.40013 2.5 1.47962 2.5 1.5625C2.5 1.64538 2.53292 1.72487 2.59153 1.78347C2.65013 1.84208 2.72962 1.875 2.8125 1.875H8.125V7.1875C8.125 7.27038 8.15792 7.34987 8.21653 7.40847C8.27513 7.46708 8.35462 7.5 8.4375 7.5C8.52038 7.5 8.59987 7.46708 8.65847 7.40847C8.71708 7.34987 8.75 7.27038 8.75 7.1875V1.5625C8.75 1.47962 8.71708 1.40013 8.65847 1.34153C8.59987 1.28292 8.52038 1.25 8.4375 1.25V1.25Z" fill="#011318"/>
<path d="M7.1875 2.5H1.5625C1.38991 2.5 1.25 2.63991 1.25 2.8125V8.4375C1.25 8.61009 1.38991 8.75 1.5625 8.75H7.1875C7.36009 8.75 7.5 8.61009 7.5 8.4375V2.8125C7.5 2.63991 7.36009 2.5 7.1875 2.5Z" fill="#011318"/>
</svg>
