<svg width="12" height="13" viewBox="0 0 12 13" fill="none" xmlns="http://www.w3.org/2000/svg">
<path d="M8.62539 5.76882C8.62539 6.41779 8.43295 7.05219 8.0724 7.59179C7.71185 8.13139 7.19939 8.55195 6.59982 8.8003C6.00025 9.04865 5.3405 9.11363 4.704 8.98702C4.0675 8.86042 3.48284 8.54791 3.02395 8.08902C2.56505 7.63012 2.25255 7.04546 2.12594 6.40896C1.99933 5.77246 2.06431 5.11271 2.31266 4.51314C2.56101 3.91357 2.98158 3.40111 3.52118 3.04056C4.06077 2.68001 4.69517 2.48757 5.34414 2.48757C6.21438 2.48757 7.04898 2.83327 7.66433 3.44863C8.27969 4.06398 8.62539 4.89858 8.62539 5.76882ZM11.5566 11.9868C11.475 12.0672 11.365 12.1124 11.2504 12.1126C11.1342 12.1121 11.0227 12.0671 10.9387 11.9868L8.57617 9.61882C7.58118 10.4546 6.30196 10.8739 5.0053 10.7894C3.70864 10.7049 2.49466 10.1231 1.61656 9.16526C0.738452 8.20745 0.264018 6.94762 0.292203 5.64852C0.320389 4.34941 0.849018 3.11134 1.76784 2.19252C2.68666 1.2737 3.92473 0.745072 5.22383 0.716886C6.52294 0.6887 7.78277 1.16313 8.74058 2.04124C9.69838 2.91934 10.2802 4.13332 10.3647 5.42998C10.4492 6.72664 10.0299 8.00586 9.19414 9.00085L11.5566 11.3634C11.598 11.4041 11.6308 11.4526 11.6532 11.5061C11.6756 11.5596 11.6872 11.6171 11.6872 11.6751C11.6872 11.7331 11.6756 11.7905 11.6532 11.844C11.6308 11.8976 11.598 11.9461 11.5566 11.9868ZM5.34414 9.92507C6.16617 9.92507 6.96974 9.68131 7.65323 9.22462C8.33672 8.76792 8.86944 8.11881 9.18401 7.35935C9.49859 6.59989 9.5809 5.76421 9.42053 4.95798C9.26016 4.15174 8.86431 3.41117 8.28305 2.82991C7.70179 2.24865 6.96122 1.8528 6.15498 1.69243C5.34875 1.53206 4.51307 1.61437 3.75361 1.92895C2.99416 2.24352 2.34504 2.77624 1.88834 3.45973C1.43165 4.14323 1.18789 4.94679 1.18789 5.76882C1.18934 6.87068 1.62769 7.927 2.40683 8.70614C3.18596 9.48527 4.24228 9.92362 5.34414 9.92507Z" fill="white" fill-opacity="0.35"/>
</svg>
