<svg width="40" height="42" viewBox="0 0 40 42" fill="none" xmlns="http://www.w3.org/2000/svg">
<path fill-rule="evenodd" clip-rule="evenodd" d="M9.42648 5.57208C9.74982 5.57208 10.012 5.82235 10.012 6.13107V15.8015C10.012 16.2337 9.64501 16.5841 9.19226 16.5841H1.87299C1.54961 16.5841 1.28745 16.3337 1.28745 16.0251C1.28745 15.7164 1.54961 15.4661 1.87299 15.4661H8.84094V6.13107C8.84094 5.82235 9.10314 5.57208 9.42648 5.57208ZM11.4759 5.57208C11.7992 5.57208 12.0614 5.82235 12.0614 6.13107V11.4973C12.0614 11.806 11.7992 12.0563 11.4759 12.0563C11.1525 12.0563 10.8903 11.806 10.8903 11.4973V6.13107C10.8903 5.82235 11.1525 5.57208 11.4759 5.57208ZM28.2224 5.57208C28.5457 5.57208 28.8079 5.82235 28.8079 6.13107V11.4973C28.8079 11.806 28.5457 12.0563 28.2224 12.0563C27.899 12.0563 27.6368 11.806 27.6368 11.4973V6.13107C27.6368 5.82235 27.899 5.57208 28.2224 5.57208ZM30.2718 5.57208C30.5951 5.57208 30.8573 5.82235 30.8573 6.13107V15.4661H37.8252C38.1486 15.4661 38.4108 15.7164 38.4108 16.0251C38.4108 16.3337 38.1486 16.5841 37.8252 16.5841H30.506C30.0532 16.5841 29.6862 16.2337 29.6862 15.8015V6.13107C29.6862 5.82235 29.9484 5.57208 30.2718 5.57208ZM7.25998 8.3111C7.58331 8.3111 7.84552 8.56141 7.84552 8.87008V13.3978C7.84552 13.8301 7.4785 14.1804 7.02576 14.1804H3.57106C3.24768 14.1804 2.98552 13.9301 2.98552 13.6214C2.98552 13.3128 3.24768 13.0625 3.57106 13.0625H6.67444V8.87008C6.67444 8.56141 6.93664 8.3111 7.25998 8.3111ZM32.4383 8.3111C32.7616 8.3111 33.0238 8.56141 33.0238 8.87008V13.0625H36.3614C36.6847 13.0625 36.9469 13.3128 36.9469 13.6214C36.9469 13.9301 36.6847 14.1804 36.3614 14.1804H32.6725C32.2197 14.1804 31.8527 13.8301 31.8527 13.3978V8.87008C31.8527 8.56141 32.1149 8.3111 32.4383 8.3111ZM0.584803 18.4846C0.584803 18.1759 0.846961 17.9256 1.17034 17.9256H8.89949C9.22283 17.9256 9.48504 18.1759 9.48504 18.4846C9.48504 18.7933 9.22283 19.0436 8.89949 19.0436H1.17034C0.846961 19.0436 0.584803 18.7933 0.584803 18.4846ZM30.2132 18.4846C30.2132 18.1759 30.4754 17.9256 30.7987 17.9256H38.5279C38.8512 17.9256 39.1134 18.1759 39.1134 18.4846C39.1134 18.7933 38.8512 19.0436 38.5279 19.0436H30.7987C30.4754 19.0436 30.2132 18.7933 30.2132 18.4846ZM0.350586 21.3913C0.350586 21.0826 0.612745 20.8323 0.936128 20.8323H4.62504C4.94842 20.8323 5.21058 21.0826 5.21058 21.3913C5.21058 21.7 4.94842 21.9503 4.62504 21.9503H0.936128C0.612745 21.9503 0.350586 21.7 0.350586 21.3913ZM34.4877 21.3913C34.4877 21.0826 34.7499 20.8323 35.0732 20.8323H38.7621C39.0855 20.8323 39.3477 21.0826 39.3477 21.3913C39.3477 21.7 39.0855 21.9503 38.7621 21.9503H35.0732C34.7499 21.9503 34.4877 21.7 34.4877 21.3913ZM0.350586 24.298C0.350586 23.9893 0.612745 23.739 0.936128 23.739H6.67444C6.99777 23.739 7.25998 23.9893 7.25998 24.298C7.25998 24.6067 6.99777 24.857 6.67444 24.857H0.936128C0.612745 24.857 0.350586 24.6067 0.350586 24.298ZM32.4383 24.298C32.4383 23.9893 32.7005 23.739 33.0238 23.739H38.7621C39.0855 23.739 39.3477 23.9893 39.3477 24.298C39.3477 24.6067 39.0855 24.857 38.7621 24.857H33.0238C32.7005 24.857 32.4383 24.6067 32.4383 24.298ZM15.741 25.3485C15.9417 25.5906 15.8989 25.9421 15.6454 26.1337L10.088 30.3337C9.94316 30.4431 9.76387 30.5027 9.57919 30.5027H2.80986C2.48648 30.5027 2.22432 30.2524 2.22432 29.9438C2.22432 29.6351 2.48648 29.3848 2.80986 29.3848H9.45693L14.9184 25.2572C15.172 25.0656 15.5402 25.1064 15.741 25.3485ZM23.9573 25.3485C24.158 25.1064 24.5262 25.0656 24.7799 25.2572L30.2413 29.3848H36.8884C37.2117 29.3848 37.4739 29.6351 37.4739 29.9438C37.4739 30.2524 37.2117 30.5027 36.8884 30.5027H30.1191C29.9344 30.5027 29.7551 30.4431 29.6102 30.3337L24.0528 26.1337C23.7993 25.9421 23.7566 25.5906 23.9573 25.3485ZM19.3019 28.4317C19.6133 28.1651 20.085 28.1651 20.3964 28.4317L29.3159 36.0677C29.5567 36.2738 29.5768 36.6272 29.3609 36.857C29.1451 37.0869 28.7749 37.1061 28.5341 36.9L19.8491 29.4648L11.1641 36.9C10.9234 37.1061 10.5532 37.0869 10.3373 36.857C10.1214 36.6272 10.1415 36.2738 10.3823 36.0677L19.3019 28.4317ZM19.8491 33.1146L13.3994 38.9035C13.1638 39.1149 12.7932 39.104 12.5717 38.8791C12.3502 38.6542 12.3616 38.3004 12.5972 38.0889L19.2876 32.0841C19.6032 31.8009 20.095 31.8009 20.4107 32.0841L27.1011 38.0889C27.3367 38.3004 27.348 38.6542 27.1266 38.8791C26.905 39.104 26.5345 39.1149 26.2989 38.9035L19.8491 33.1146ZM16.5115 37.5459C16.8349 37.5459 17.0971 37.7962 17.0971 38.1049V40.5644C17.0971 40.8731 16.8349 41.1234 16.5115 41.1234C16.1882 41.1234 15.926 40.8731 15.926 40.5644V38.1049C15.926 37.7962 16.1882 37.5459 16.5115 37.5459ZM23.1867 37.5459C23.51 37.5459 23.7723 37.7962 23.7723 38.1049V40.5644C23.7723 40.8731 23.51 41.1234 23.1867 41.1234C22.8634 41.1234 22.6012 40.8731 22.6012 40.5644V38.1049C22.6012 37.7962 22.8634 37.5459 23.1867 37.5459Z" fill="#60F7F7"/>
<path fill-rule="evenodd" clip-rule="evenodd" d="M19.8493 0.87661C20.1727 0.87661 20.4349 1.12688 20.4349 1.43559V3.16441L23.4743 5.28874C23.7352 5.47112 23.7919 5.82088 23.6008 6.06998C23.4098 6.31907 23.0433 6.37316 22.7824 6.19079L19.8493 4.14072L16.9162 6.19079C16.6553 6.37316 16.2889 6.31907 16.0979 6.06998C15.9068 5.82088 15.9634 5.47112 16.2243 5.28874L19.2638 3.16441V1.43559C19.2638 1.12688 19.526 0.87661 19.8493 0.87661ZM19.8551 6.93472L15.0489 10.3372C14.9077 10.4371 14.7365 10.4911 14.5606 10.4911H13.8182C13.4949 10.4911 13.2327 10.2408 13.2327 9.93214C13.2327 9.62347 13.4949 9.37316 13.8182 9.37316H14.4445L19.3633 5.891C19.6495 5.68841 20.04 5.68547 20.3295 5.88373L25.4246 9.37316H26.0561C26.3794 9.37316 26.6416 9.62347 26.6416 9.93214C26.6416 10.2408 26.3794 10.4911 26.0561 10.4911H25.3116C25.1402 10.4911 24.973 10.4398 24.8338 10.3444L19.8551 6.93472ZM19.8493 10.0727L14.3499 14.0231C14.2079 14.1252 14.0349 14.1804 13.8571 14.1804H12.9399C12.6166 14.1804 12.3544 13.9301 12.3544 13.6214C12.3544 13.3128 12.6166 13.0624 12.9399 13.0624H13.7397L19.3564 9.02771C19.6484 8.81798 20.0503 8.81798 20.3422 9.02771L25.959 13.0624H26.7587C27.082 13.0624 27.3443 13.3128 27.3443 13.6214C27.3443 13.9301 27.082 14.1804 26.7587 14.1804H25.8415C25.6637 14.1804 25.4908 14.1252 25.3487 14.0231L19.8493 10.0727ZM19.8493 13.2618L13.6502 17.7657C13.5074 17.8695 13.3331 17.9256 13.1538 17.9256H12.1787C11.8554 17.9256 11.5932 17.6753 11.5932 17.3666C11.5932 17.0579 11.8554 16.8076 12.1787 16.8076H13.0353L19.3529 12.2176C19.6461 12.0045 20.0525 12.0045 20.3457 12.2176L26.6634 16.8076H27.5199C27.8433 16.8076 28.1055 17.0579 28.1055 17.3666C28.1055 17.6753 27.8433 17.9256 27.5199 17.9256H26.5449C26.3656 17.9256 26.1912 17.8695 26.0485 17.7657L19.8493 13.2618ZM19.8493 16.612L13.2366 21.3466C13.0947 21.4482 12.9221 21.5031 12.7447 21.5031H11.4761C11.1527 21.5031 10.8905 21.2528 10.8905 20.9441C10.8905 20.6354 11.1527 20.3851 11.4761 20.3851H12.6276L19.3575 15.5667C19.6489 15.358 20.0497 15.358 20.3412 15.5667L27.071 20.3851H28.2226C28.5459 20.3851 28.8081 20.6354 28.8081 20.9441C28.8081 21.2528 28.5459 21.5031 28.2226 21.5031H26.9539C26.7765 21.5031 26.6039 21.4482 26.4621 21.3466L19.8493 16.612ZM19.8493 20.0331L13.3112 24.9224C13.1257 25.0611 12.8968 25.1365 12.6612 25.1365H9.89511C9.57178 25.1365 9.30957 24.8862 9.30957 24.5775C9.30957 24.2688 9.57178 24.0185 9.89511 24.0185H12.6208L19.3438 18.991C19.6408 18.769 20.0579 18.769 20.3549 18.991L27.0778 24.0185H29.8035C30.1269 24.0185 30.3891 24.2688 30.3891 24.5775C30.3891 24.8862 30.1269 25.1365 29.8035 25.1365H27.0374C26.8018 25.1365 26.573 25.0611 26.3875 24.9224L19.8493 20.0331Z" fill="url(#paint0_linear_2130_2138)"/>
<path fill-rule="evenodd" clip-rule="evenodd" d="M18.5615 22.7324C18.8848 22.7324 19.147 22.9827 19.147 23.2914V26.4841C19.147 26.7175 19.0379 26.9387 18.8494 27.0874L10.5677 33.621C10.4207 33.7369 10.236 33.8003 10.0455 33.8003H4.62558C4.3022 33.8003 4.04004 33.55 4.04004 33.2413C4.04004 32.9327 4.3022 32.6823 4.62558 32.6823H9.91899L17.9759 26.3263V23.2914C17.9759 22.9827 18.2381 22.7324 18.5615 22.7324ZM21.1379 22.7324C21.4612 22.7324 21.7234 22.9827 21.7234 23.2914V26.3263L29.7803 32.6823H35.0737C35.3971 32.6823 35.6593 32.9327 35.6593 33.2413C35.6593 33.55 35.3971 33.8003 35.0737 33.8003H29.6539C29.4633 33.8003 29.2786 33.7369 29.1317 33.621L20.8499 27.0874C20.6615 26.9387 20.5523 26.7175 20.5523 26.4841V23.2914C20.5523 22.9827 20.8145 22.7324 21.1379 22.7324Z" fill="url(#paint1_linear_2130_2138)"/>
<path fill-rule="evenodd" clip-rule="evenodd" d="M2.86816 27.0369C2.86816 26.7282 3.13032 26.4779 3.45371 26.4779H9.89466C10.218 26.4779 10.4802 26.7282 10.4802 27.0369C10.4802 27.3456 10.218 27.5959 9.89466 27.5959H3.45371C3.13032 27.5959 2.86816 27.3456 2.86816 27.0369ZM29.2175 27.0369C29.2175 26.7282 29.4797 26.4779 29.8031 26.4779H36.244C36.5674 26.4779 36.8296 26.7282 36.8296 27.0369C36.8296 27.3456 36.5674 27.5959 36.244 27.5959H29.8031C29.4797 27.5959 29.2175 27.3456 29.2175 27.0369Z" fill="url(#paint2_linear_2130_2138)"/>
<path fill-rule="evenodd" clip-rule="evenodd" d="M19.7896 35.4212C20.113 35.4212 20.3752 35.6715 20.3752 35.9802V39.6136C20.3752 39.9223 20.113 40.1726 19.7896 40.1726C19.4663 40.1726 19.2041 39.9223 19.2041 39.6136V35.9802C19.2041 35.6715 19.4663 35.4212 19.7896 35.4212Z" fill="url(#paint3_linear_2130_2138)"/>
<path d="M10.995 37.6787C10.5224 38.1003 9.78136 38.0762 9.33975 37.625C8.89825 37.1739 8.92343 36.4665 9.39596 36.0449C9.86849 35.6234 10.6096 35.6475 11.0512 36.0986C11.4928 36.5497 11.4676 37.2571 10.995 37.6787Z" fill="#60F7F7"/>
<path d="M28.4927 37.595C28.9652 38.0165 29.7063 37.9925 30.1479 37.5413C30.5894 37.0902 30.5643 36.3828 30.0917 35.9612C29.6191 35.5397 28.8781 35.5636 28.4365 36.0148C27.995 36.4659 28.02 37.1734 28.4927 37.595Z" fill="#60F7F7"/>
<path d="M6.08768 11.2183C6.08768 11.6813 5.69443 12.0567 5.20937 12.0567C4.72429 12.0567 4.33105 11.6813 4.33105 11.2183C4.33105 10.7552 4.72429 10.3798 5.20937 10.3798C5.69443 10.3798 6.08768 10.7552 6.08768 11.2183Z" fill="#60F7F7"/>
<path d="M35.4822 11.2183C35.4822 11.6813 35.089 12.0567 34.6039 12.0567C34.1188 12.0567 33.7256 11.6813 33.7256 11.2183C33.7256 10.7552 34.1188 10.3798 34.6039 10.3798C35.089 10.3798 35.4822 10.7552 35.4822 11.2183Z" fill="#60F7F7"/>
<path d="M32.2058 21.1678C32.2058 21.6309 31.8126 22.0063 31.3275 22.0063C30.8425 22.0063 30.4492 21.6309 30.4492 21.1678C30.4492 20.7047 30.8425 20.3293 31.3275 20.3293C31.8126 20.3293 32.2058 20.7047 32.2058 21.1678Z" fill="url(#paint4_linear_2130_2138)"/>
<path d="M14.7547 6.18702C14.7547 6.65009 14.3614 7.02549 13.8764 7.02549C13.3913 7.02549 12.998 6.65009 12.998 6.18702C12.998 5.72394 13.3913 5.34854 13.8764 5.34854C14.3614 5.34854 14.7547 5.72394 14.7547 6.18702Z" fill="#60F7F7"/>
<path d="M26.4666 6.18702C26.4666 6.65009 26.0733 7.02549 25.5883 7.02549C25.1032 7.02549 24.71 6.65009 24.71 6.18702C24.71 5.72394 25.1032 5.34854 25.5883 5.34854C26.0733 5.34854 26.4666 5.72394 26.4666 6.18702Z" fill="#60F7F7"/>
<path d="M9.36893 21.1678C9.36893 21.6309 8.97568 22.0063 8.49062 22.0063C8.00555 22.0063 7.6123 21.6309 7.6123 21.1678C7.6123 20.7047 8.00555 20.3293 8.49062 20.3293C8.97568 20.3293 9.36893 20.7047 9.36893 21.1678Z" fill="url(#paint5_linear_2130_2138)"/>
<defs>
<linearGradient id="paint0_linear_2130_2138" x1="19.8493" y1="0.87661" x2="19.8493" y2="25.1365" gradientUnits="userSpaceOnUse">
<stop stop-color="#FECF90"/>
<stop offset="1" stop-color="#F74063"/>
</linearGradient>
<linearGradient id="paint1_linear_2130_2138" x1="19.8497" y1="22.7324" x2="19.8497" y2="33.8003" gradientUnits="userSpaceOnUse">
<stop stop-color="#FECF90"/>
<stop offset="1" stop-color="#F74063"/>
</linearGradient>
<linearGradient id="paint2_linear_2130_2138" x1="19.8489" y1="26.4779" x2="19.8489" y2="27.5959" gradientUnits="userSpaceOnUse">
<stop stop-color="#FECF90"/>
<stop offset="1" stop-color="#F74063"/>
</linearGradient>
<linearGradient id="paint3_linear_2130_2138" x1="19.7896" y1="35.4212" x2="19.7896" y2="40.1726" gradientUnits="userSpaceOnUse">
<stop stop-color="#FECF90"/>
<stop offset="1" stop-color="#F74063"/>
</linearGradient>
<linearGradient id="paint4_linear_2130_2138" x1="31.3275" y1="20.3293" x2="31.3275" y2="22.0063" gradientUnits="userSpaceOnUse">
<stop stop-color="#FECF90"/>
<stop offset="1" stop-color="#F74063"/>
</linearGradient>
<linearGradient id="paint5_linear_2130_2138" x1="8.49062" y1="20.3293" x2="8.49062" y2="22.0063" gradientUnits="userSpaceOnUse">
<stop stop-color="#FECF90"/>
<stop offset="1" stop-color="#F74063"/>
</linearGradient>
</defs>
</svg>
