<svg width="47" height="47" viewBox="0 0 47 47" fill="none" xmlns="http://www.w3.org/2000/svg">
<circle cx="23.5" cy="23.5" r="23.5" fill="#011116"/>
<path fill-rule="evenodd" clip-rule="evenodd" d="M13.4265 7.57202C13.7498 7.57202 14.012 7.82229 14.012 8.131V17.8014C14.012 18.2336 13.645 18.584 13.1923 18.584H5.87299C5.54961 18.584 5.28745 18.3337 5.28745 18.025C5.28745 17.7163 5.54961 17.466 5.87299 17.466H12.8409V8.131C12.8409 7.82229 13.1031 7.57202 13.4265 7.57202ZM15.4759 7.57202C15.7992 7.57202 16.0614 7.82229 16.0614 8.131V13.4972C16.0614 13.8059 15.7992 14.0562 15.4759 14.0562C15.1525 14.0562 14.8903 13.8059 14.8903 13.4972V8.131C14.8903 7.82229 15.1525 7.57202 15.4759 7.57202ZM32.2224 7.57202C32.5457 7.57202 32.8079 7.82229 32.8079 8.131V13.4972C32.8079 13.8059 32.5457 14.0562 32.2224 14.0562C31.899 14.0562 31.6368 13.8059 31.6368 13.4972V8.131C31.6368 7.82229 31.899 7.57202 32.2224 7.57202ZM34.2718 7.57202C34.5951 7.57202 34.8573 7.82229 34.8573 8.131V17.466H41.8252C42.1486 17.466 42.4108 17.7163 42.4108 18.025C42.4108 18.3337 42.1486 18.584 41.8252 18.584H34.506C34.0532 18.584 33.6862 18.2336 33.6862 17.8014V8.131C33.6862 7.82229 33.9484 7.57202 34.2718 7.57202ZM11.26 10.311C11.5833 10.311 11.8455 10.5614 11.8455 10.87V15.3978C11.8455 15.83 11.4785 16.1804 11.0258 16.1804H7.57106C7.24768 16.1804 6.98552 15.9301 6.98552 15.6214C6.98552 15.3127 7.24768 15.0624 7.57106 15.0624H10.6744V10.87C10.6744 10.5614 10.9366 10.311 11.26 10.311ZM36.4383 10.311C36.7616 10.311 37.0238 10.5614 37.0238 10.87V15.0624H40.3614C40.6847 15.0624 40.9469 15.3127 40.9469 15.6214C40.9469 15.9301 40.6847 16.1804 40.3614 16.1804H36.6725C36.2197 16.1804 35.8527 15.83 35.8527 15.3978V10.87C35.8527 10.5614 36.1149 10.311 36.4383 10.311ZM4.5848 20.4845C4.5848 20.1759 4.84696 19.9256 5.17034 19.9256H12.8995C13.2228 19.9256 13.485 20.1759 13.485 20.4845C13.485 20.7932 13.2228 21.0435 12.8995 21.0435H5.17034C4.84696 21.0435 4.5848 20.7932 4.5848 20.4845ZM34.2132 20.4845C34.2132 20.1759 34.4754 19.9256 34.7987 19.9256H42.5279C42.8512 19.9256 43.1134 20.1759 43.1134 20.4845C43.1134 20.7932 42.8512 21.0435 42.5279 21.0435H34.7987C34.4754 21.0435 34.2132 20.7932 34.2132 20.4845ZM4.35059 23.3912C4.35059 23.0826 4.61274 22.8323 4.93613 22.8323H8.62504C8.94842 22.8323 9.21058 23.0826 9.21058 23.3912C9.21058 23.6999 8.94842 23.9502 8.62504 23.9502H4.93613C4.61274 23.9502 4.35059 23.6999 4.35059 23.3912ZM38.4877 23.3912C38.4877 23.0826 38.7499 22.8323 39.0732 22.8323H42.7621C43.0855 22.8323 43.3477 23.0826 43.3477 23.3912C43.3477 23.6999 43.0855 23.9502 42.7621 23.9502H39.0732C38.7499 23.9502 38.4877 23.6999 38.4877 23.3912ZM4.35059 26.298C4.35059 25.9893 4.61274 25.739 4.93613 25.739H10.6744C10.9978 25.739 11.26 25.9893 11.26 26.298C11.26 26.6066 10.9978 26.8569 10.6744 26.8569H4.93613C4.61274 26.8569 4.35059 26.6066 4.35059 26.298ZM36.4383 26.298C36.4383 25.9893 36.7005 25.739 37.0238 25.739H42.7621C43.0855 25.739 43.3477 25.9893 43.3477 26.298C43.3477 26.6066 43.0855 26.8569 42.7621 26.8569H37.0238C36.7005 26.8569 36.4383 26.6066 36.4383 26.298ZM19.741 27.3484C19.9417 27.5906 19.8989 27.942 19.6454 28.1337L14.088 32.3336C13.9432 32.4431 13.7639 32.5027 13.5792 32.5027H6.80986C6.48648 32.5027 6.22432 32.2524 6.22432 31.9437C6.22432 31.635 6.48648 31.3847 6.80986 31.3847H13.4569L18.9184 27.2572C19.172 27.0656 19.5402 27.1064 19.741 27.3484ZM27.9573 27.3484C28.158 27.1064 28.5262 27.0656 28.7799 27.2572L34.2413 31.3847H40.8884C41.2117 31.3847 41.4739 31.635 41.4739 31.9437C41.4739 32.2524 41.2117 32.5027 40.8884 32.5027H34.1191C33.9344 32.5027 33.7551 32.4431 33.6102 32.3336L28.0528 28.1337C27.7993 27.942 27.7566 27.5906 27.9573 27.3484ZM23.3019 30.4316C23.6133 30.165 24.085 30.165 24.3964 30.4316L33.3159 38.0677C33.5567 38.2737 33.5768 38.6271 33.3609 38.857C33.1451 39.0868 32.7749 39.1061 32.5341 38.8999L23.8491 31.4648L15.1641 38.8999C14.9234 39.1061 14.5532 39.0868 14.3373 38.857C14.1214 38.6271 14.1415 38.2737 14.3823 38.0677L23.3019 30.4316ZM23.8491 35.1146L17.3994 40.9034C17.1638 41.1148 16.7932 41.104 16.5717 40.879C16.3502 40.6541 16.3616 40.3004 16.5972 40.0889L23.2876 34.084C23.6032 33.8009 24.095 33.8009 24.4107 34.084L31.1011 40.0889C31.3367 40.3004 31.348 40.6541 31.1266 40.879C30.905 41.104 30.5345 41.1148 30.2989 40.9034L23.8491 35.1146ZM20.5115 39.5459C20.8349 39.5459 21.0971 39.7962 21.0971 40.1048V42.5644C21.0971 42.873 20.8349 43.1234 20.5115 43.1234C20.1882 43.1234 19.926 42.873 19.926 42.5644V40.1048C19.926 39.7962 20.1882 39.5459 20.5115 39.5459ZM27.1867 39.5459C27.51 39.5459 27.7723 39.7962 27.7723 40.1048V42.5644C27.7723 42.873 27.51 43.1234 27.1867 43.1234C26.8634 43.1234 26.6012 42.873 26.6012 42.5644V40.1048C26.6012 39.7962 26.8634 39.5459 27.1867 39.5459Z" fill="#60F7F7"/>
<path fill-rule="evenodd" clip-rule="evenodd" d="M23.8493 2.87656C24.1727 2.87656 24.4349 3.12682 24.4349 3.43554V5.16435L27.4743 7.28869C27.7352 7.47106 27.7919 7.82083 27.6008 8.06993C27.4098 8.31902 27.0433 8.37311 26.7824 8.19073L23.8493 6.14066L20.9162 8.19073C20.6553 8.37311 20.2889 8.31902 20.0979 8.06993C19.9068 7.82083 19.9634 7.47106 20.2243 7.28869L23.2638 5.16435V3.43554C23.2638 3.12682 23.526 2.87656 23.8493 2.87656ZM23.8551 8.93466L19.0489 12.3371C18.9077 12.4371 18.7365 12.4911 18.5606 12.4911H17.8182C17.4949 12.4911 17.2327 12.2408 17.2327 11.9321C17.2327 11.6234 17.4949 11.3731 17.8182 11.3731H18.4445L23.3633 7.89095C23.6495 7.68835 24.04 7.68541 24.3295 7.88367L29.4246 11.3731H30.0561C30.3794 11.3731 30.6416 11.6234 30.6416 11.9321C30.6416 12.2408 30.3794 12.4911 30.0561 12.4911H29.3116C29.1402 12.4911 28.973 12.4398 28.8338 12.3444L23.8551 8.93466ZM23.8493 12.0726L18.3499 16.0231C18.2079 16.1251 18.0349 16.1804 17.8571 16.1804H16.9399C16.6166 16.1804 16.3544 15.93 16.3544 15.6214C16.3544 15.3127 16.6166 15.0624 16.9399 15.0624H17.7397L23.3564 11.0277C23.6484 10.8179 24.0503 10.8179 24.3422 11.0277L29.959 15.0624H30.7587C31.082 15.0624 31.3443 15.3127 31.3443 15.6214C31.3443 15.93 31.082 16.1804 30.7587 16.1804H29.8415C29.6637 16.1804 29.4908 16.1251 29.3487 16.0231L23.8493 12.0726ZM23.8493 15.2617L17.6502 19.7657C17.5074 19.8694 17.3331 19.9256 17.1538 19.9256H16.1787C15.8554 19.9256 15.5932 19.6752 15.5932 19.3666C15.5932 19.0579 15.8554 18.8076 16.1787 18.8076H17.0353L23.3529 14.2175C23.6461 14.0045 24.0525 14.0045 24.3457 14.2175L30.6634 18.8076H31.5199C31.8433 18.8076 32.1055 19.0579 32.1055 19.3666C32.1055 19.6752 31.8433 19.9256 31.5199 19.9256H30.5449C30.3656 19.9256 30.1912 19.8694 30.0485 19.7657L23.8493 15.2617ZM23.8493 18.6119L17.2366 23.3465C17.0947 23.4482 16.9221 23.503 16.7447 23.503H15.4761C15.1527 23.503 14.8905 23.2527 14.8905 22.9441C14.8905 22.6354 15.1527 22.3851 15.4761 22.3851H16.6276L23.3575 17.5666C23.6489 17.3579 24.0497 17.3579 24.3412 17.5666L31.071 22.3851H32.2226C32.5459 22.3851 32.8081 22.6354 32.8081 22.9441C32.8081 23.2527 32.5459 23.503 32.2226 23.503H30.9539C30.7765 23.503 30.6039 23.4482 30.4621 23.3465L23.8493 18.6119ZM23.8493 22.033L17.3112 26.9223C17.1257 27.0611 16.8968 27.1364 16.6612 27.1364H13.8951C13.5718 27.1364 13.3096 26.8861 13.3096 26.5775C13.3096 26.2688 13.5718 26.0185 13.8951 26.0185H16.6208L23.3438 20.991C23.6408 20.7689 24.0579 20.7689 24.3549 20.991L31.0778 26.0185H33.8035C34.1269 26.0185 34.3891 26.2688 34.3891 26.5775C34.3891 26.8861 34.1269 27.1364 33.8035 27.1364H31.0374C30.8018 27.1364 30.573 27.0611 30.3875 26.9223L23.8493 22.033Z" fill="url(#paint0_linear_2352_2154)"/>
<path fill-rule="evenodd" clip-rule="evenodd" d="M22.5615 24.7324C22.8848 24.7324 23.147 24.9827 23.147 25.2914V28.4841C23.147 28.7175 23.0379 28.9386 22.8494 29.0873L14.5677 35.6209C14.4207 35.7369 14.236 35.8003 14.0455 35.8003H8.62558C8.3022 35.8003 8.04004 35.55 8.04004 35.2413C8.04004 34.9326 8.3022 34.6823 8.62558 34.6823H13.919L21.9759 28.3262V25.2914C21.9759 24.9827 22.2381 24.7324 22.5615 24.7324ZM25.1379 24.7324C25.4612 24.7324 25.7234 24.9827 25.7234 25.2914V28.3262L33.7803 34.6823H39.0737C39.3971 34.6823 39.6593 34.9326 39.6593 35.2413C39.6593 35.55 39.3971 35.8003 39.0737 35.8003H33.6539C33.4633 35.8003 33.2786 35.7369 33.1317 35.6209L24.8499 29.0873C24.6615 28.9386 24.5523 28.7175 24.5523 28.4841V25.2914C24.5523 24.9827 24.8145 24.7324 25.1379 24.7324Z" fill="url(#paint1_linear_2352_2154)"/>
<path fill-rule="evenodd" clip-rule="evenodd" d="M6.86816 29.0368C6.86816 28.7282 7.13032 28.4778 7.45371 28.4778H13.8947C14.218 28.4778 14.4802 28.7282 14.4802 29.0368C14.4802 29.3455 14.218 29.5958 13.8947 29.5958H7.45371C7.13032 29.5958 6.86816 29.3455 6.86816 29.0368ZM33.2175 29.0368C33.2175 28.7282 33.4797 28.4778 33.8031 28.4778H40.244C40.5674 28.4778 40.8296 28.7282 40.8296 29.0368C40.8296 29.3455 40.5674 29.5958 40.244 29.5958H33.8031C33.4797 29.5958 33.2175 29.3455 33.2175 29.0368Z" fill="url(#paint2_linear_2352_2154)"/>
<path fill-rule="evenodd" clip-rule="evenodd" d="M23.7896 37.4212C24.113 37.4212 24.3752 37.6715 24.3752 37.9802V41.6135C24.3752 41.9222 24.113 42.1725 23.7896 42.1725C23.4663 42.1725 23.2041 41.9222 23.2041 41.6135V37.9802C23.2041 37.6715 23.4663 37.4212 23.7896 37.4212Z" fill="url(#paint3_linear_2352_2154)"/>
<path d="M14.995 39.6787C14.5224 40.1002 13.7814 40.0762 13.3397 39.625C12.8982 39.1739 12.9234 38.4665 13.396 38.0449C13.8685 37.6234 14.6096 37.6474 15.0512 38.0985C15.4928 38.5496 15.4676 39.2571 14.995 39.6787Z" fill="#60F7F7"/>
<path d="M32.4927 39.5949C32.9652 40.0164 33.7063 39.9925 34.1479 39.5413C34.5894 39.0902 34.5643 38.3827 34.0917 37.9611C33.6191 37.5397 32.8781 37.5636 32.4365 38.0148C31.995 38.4659 32.02 39.1733 32.4927 39.5949Z" fill="#60F7F7"/>
<path d="M10.0877 13.2182C10.0877 13.6813 9.69443 14.0567 9.20937 14.0567C8.72429 14.0567 8.33105 13.6813 8.33105 13.2182C8.33105 12.7552 8.72429 12.3798 9.20937 12.3798C9.69443 12.3798 10.0877 12.7552 10.0877 13.2182Z" fill="#60F7F7"/>
<path d="M39.4822 13.2182C39.4822 13.6813 39.089 14.0567 38.6039 14.0567C38.1188 14.0567 37.7256 13.6813 37.7256 13.2182C37.7256 12.7552 38.1188 12.3798 38.6039 12.3798C39.089 12.3798 39.4822 12.7552 39.4822 13.2182Z" fill="#60F7F7"/>
<path d="M36.2058 23.1678C36.2058 23.6308 35.8126 24.0062 35.3275 24.0062C34.8425 24.0062 34.4492 23.6308 34.4492 23.1678C34.4492 22.7047 34.8425 22.3293 35.3275 22.3293C35.8126 22.3293 36.2058 22.7047 36.2058 23.1678Z" fill="url(#paint4_linear_2352_2154)"/>
<path d="M18.7547 8.18699C18.7547 8.65006 18.3614 9.02546 17.8764 9.02546C17.3913 9.02546 16.998 8.65006 16.998 8.18699C16.998 7.72391 17.3913 7.34851 17.8764 7.34851C18.3614 7.34851 18.7547 7.72391 18.7547 8.18699Z" fill="#60F7F7"/>
<path d="M30.4666 8.18699C30.4666 8.65006 30.0733 9.02546 29.5883 9.02546C29.1032 9.02546 28.71 8.65006 28.71 8.18699C28.71 7.72391 29.1032 7.34851 29.5883 7.34851C30.0733 7.34851 30.4666 7.72391 30.4666 8.18699Z" fill="#60F7F7"/>
<path d="M13.3689 23.1678C13.3689 23.6308 12.9757 24.0062 12.4906 24.0062C12.0056 24.0062 11.6123 23.6308 11.6123 23.1678C11.6123 22.7047 12.0056 22.3293 12.4906 22.3293C12.9757 22.3293 13.3689 22.7047 13.3689 23.1678Z" fill="url(#paint5_linear_2352_2154)"/>
<defs>
<linearGradient id="paint0_linear_2352_2154" x1="23.8493" y1="2.87656" x2="23.8493" y2="27.1364" gradientUnits="userSpaceOnUse">
<stop stop-color="#FECF90"/>
<stop offset="1" stop-color="#F74063"/>
</linearGradient>
<linearGradient id="paint1_linear_2352_2154" x1="23.8497" y1="24.7324" x2="23.8497" y2="35.8003" gradientUnits="userSpaceOnUse">
<stop stop-color="#FECF90"/>
<stop offset="1" stop-color="#F74063"/>
</linearGradient>
<linearGradient id="paint2_linear_2352_2154" x1="23.8489" y1="28.4778" x2="23.8489" y2="29.5958" gradientUnits="userSpaceOnUse">
<stop stop-color="#FECF90"/>
<stop offset="1" stop-color="#F74063"/>
</linearGradient>
<linearGradient id="paint3_linear_2352_2154" x1="23.7896" y1="37.4212" x2="23.7896" y2="42.1725" gradientUnits="userSpaceOnUse">
<stop stop-color="#FECF90"/>
<stop offset="1" stop-color="#F74063"/>
</linearGradient>
<linearGradient id="paint4_linear_2352_2154" x1="35.3275" y1="22.3293" x2="35.3275" y2="24.0062" gradientUnits="userSpaceOnUse">
<stop stop-color="#FECF90"/>
<stop offset="1" stop-color="#F74063"/>
</linearGradient>
<linearGradient id="paint5_linear_2352_2154" x1="12.4906" y1="22.3293" x2="12.4906" y2="24.0062" gradientUnits="userSpaceOnUse">
<stop stop-color="#FECF90"/>
<stop offset="1" stop-color="#F74063"/>
</linearGradient>
</defs>
</svg>
