<svg width="26" height="23" viewBox="0 0 26 23" fill="none" xmlns="http://www.w3.org/2000/svg">
<path d="M25.1689 2.63355V8.25855C25.1689 8.50719 25.0702 8.74564 24.8944 8.92146C24.7185 9.09727 24.4801 9.19605 24.2314 9.19605H18.6064C18.422 9.19574 18.2417 9.14101 18.0881 9.03871C17.9346 8.93641 17.8147 8.79108 17.7434 8.62093C17.672 8.45078 17.6525 8.26337 17.6872 8.08217C17.7219 7.90098 17.8093 7.73405 17.9385 7.6023L20.0947 5.44605L19.5908 4.94214C17.8293 3.18746 15.4443 2.20226 12.958 2.20226C10.4717 2.20226 8.08669 3.18746 6.3252 4.94214C6.23897 5.03037 6.13598 5.10048 6.02228 5.14834C5.90858 5.19621 5.78645 5.22086 5.66309 5.22086C5.53972 5.22086 5.4176 5.19621 5.30389 5.14834C5.19019 5.10048 5.0872 5.03037 5.00098 4.94214C4.82565 4.76639 4.72719 4.52828 4.72719 4.28003C4.72719 4.03178 4.82565 3.79367 5.00098 3.61792C7.11397 1.51259 9.9752 0.330475 12.958 0.330475C15.9408 0.330475 18.802 1.51259 20.915 3.61792L21.4189 4.12183L23.5635 1.9773C23.6935 1.84531 23.8598 1.75484 24.0413 1.71729C24.2227 1.67975 24.4112 1.69682 24.583 1.76636C24.754 1.83881 24.9004 1.95928 25.0044 2.11319C25.1084 2.26709 25.1655 2.44783 25.1689 2.63355ZM19.5908 18.2078C17.8293 19.9624 15.4443 20.9476 12.958 20.9476C10.4717 20.9476 8.08669 19.9624 6.3252 18.2078L5.82129 17.7039L7.97754 15.5476C8.10668 15.4159 8.19408 15.2489 8.22879 15.0677C8.2635 14.8865 8.24397 14.6991 8.17266 14.529C8.10135 14.3588 7.98142 14.2135 7.82789 14.1112C7.67436 14.0089 7.49406 13.9542 7.30957 13.9539H1.68457C1.43593 13.9539 1.19747 14.0526 1.02166 14.2284C0.845843 14.4043 0.74707 14.6427 0.74707 14.8914V20.5164C0.750478 20.7021 0.807634 20.8828 0.911624 21.0367C1.01561 21.1906 1.16198 21.3111 1.33301 21.3835C1.44458 21.4294 1.56395 21.4533 1.68457 21.4539C1.8092 21.455 1.93275 21.4306 2.04762 21.3823C2.16249 21.3339 2.26626 21.2626 2.35254 21.1726L4.49707 19.0281L5.00098 19.532C7.11245 21.6402 9.97425 22.8243 12.958 22.8243C15.9418 22.8243 18.8036 21.6402 20.915 19.532C21.0904 19.3562 21.1888 19.1181 21.1888 18.8699C21.1888 18.6216 21.0904 18.3835 20.915 18.2078C20.8288 18.1195 20.7258 18.0494 20.6121 18.0016C20.4984 17.9537 20.3763 17.929 20.2529 17.929C20.1296 17.929 20.0074 17.9537 19.8937 18.0016C19.78 18.0494 19.677 18.1195 19.5908 18.2078V18.2078Z" fill="#ECECEC"/>
</svg>
